<?xml version="1.0" encoding="utf-8"?>
<!-- Generator: Adobe Illustrator 16.0.0, SVG Export Plug-In . SVG Version: 6.00 Build 0)  -->
<!DOCTYPE svg PUBLIC "-//W3C//DTD SVG 1.1//EN" "http://www.w3.org/Graphics/SVG/1.1/DTD/svg11.dtd">
<svg version="1.1"
	 id="svg25" xmlns:dc="http://purl.org/dc/elements/1.1/" xmlns:svg="http://www.w3.org/2000/svg" xmlns:sodipodi="http://sodipodi.sourceforge.net/DTD/sodipodi-0.dtd" xmlns:rdf="http://www.w3.org/1999/02/22-rdf-syntax-ns#" xmlns:inkscape="http://www.inkscape.org/namespaces/inkscape" xmlns:cc="http://creativecommons.org/ns#" inkscape:version="0.92.2 (5c3e80d, 2017-08-06)" sodipodi:docname="ARCALOGO_Logistica.svg"
	 xmlns="http://www.w3.org/2000/svg" xmlns:xlink="http://www.w3.org/1999/xlink" x="0px" y="0px" width="841.889px"
	 height="595.281px" viewBox="0 0 841.889 595.281" enable-background="new 0 0 841.889 595.281" xml:space="preserve">
<sodipodi:namedview  id="namedview27" gridtolerance="10" inkscape:cy="64.38079" pagecolor="#ffffff" inkscape:cx="104.54808" objecttolerance="10" guidetolerance="10" borderopacity="1" showgrid="false" inkscape:zoom="3.1715102" bordercolor="#666666" inkscape:window-maximized="1" inkscape:current-layer="svg25" inkscape:window-y="-8" inkscape:window-x="1912" inkscape:window-height="1027" inkscape:window-width="1920" inkscape:pageshadow="2" inkscape:pageopacity="0">
	</sodipodi:namedview>
<g id="Livello_3">
	<path id="rect4" inkscape:connector-curvature="0" fill="#ED2F3C" d="M5.76,92.485h254.782v410.753H5.76V92.485z"/>
</g>
<path id="rect7" inkscape:connector-curvature="0" fill="none" d="M0,169.141h882.211v314.601H0V169.141z"/>
<g id="text17" transform="translate(90,101)">
	<path id="path884" inkscape:connector-curvature="0" fill="#FFFFFF" d="M84.492,252.222H1.226l-16.59,55.193h-30.627L24.515,87.602
		h38.283l70.188,219.813h-31.903L84.492,252.222z M77.155,227.658L43.019,112.806L8.563,227.658H77.155z"/>
</g>
<g id="text17-1">
	<path id="path887" inkscape:connector-curvature="0" fill="#ED2F3C" d="M365.532,309.609h-34.137v93.156h-30.308V182.953h57.744
		c27.438,0,48.174,5.211,62.211,15.633c14.251,10.421,21.376,25.948,21.376,46.579c0,15.313-3.936,27.756-11.805,37.327
		s-19.779,16.802-35.731,21.694l59.34,98.58h-36.051L365.532,309.609z M362.023,286.319c15.952,0,27.969-3.19,36.051-9.571
		c8.082-6.593,12.123-17.122,12.123-31.584c0-13.612-4.147-23.396-12.442-29.351c-8.082-6.168-21.162-9.252-39.24-9.252h-27.118
		v79.758H362.023z"/>
	<path id="path889" inkscape:connector-curvature="0" fill="#ED2F3C" d="M568.023,179.125c13.187,0,24.246,1.701,33.18,5.104
		c9.146,3.403,18.397,8.933,27.755,16.589l-16.589,19.461c-13.399-10.847-27.544-16.271-42.432-16.271
		c-18.291,0-33.073,7.019-44.346,21.056c-11.06,14.038-16.59,36.583-16.59,67.635c0,30.202,5.53,52.534,16.59,66.997
		c11.06,14.25,25.735,21.375,44.026,21.375c9.358,0,17.44-1.596,24.247-4.785c6.806-3.191,14.25-7.764,22.332-13.719l15.313,19.461
		c-6.594,7.018-15.313,12.867-26.161,17.547c-10.634,4.68-22.863,7.018-36.688,7.018c-17.865,0-33.817-4.359-47.854-13.08
		c-13.825-8.932-24.672-21.906-32.541-38.922c-7.657-17.227-11.485-37.857-11.485-61.892c0-24.034,4.041-44.558,12.123-61.573
		c8.082-17.228,19.035-30.202,32.86-38.922S551.007,179.124,568.023,179.125L568.023,179.125z"/>
	<path id="path891" inkscape:connector-curvature="0" fill="#ED2F3C" d="M770.463,347.574h-83.268l-16.589,55.191h-30.628
		l70.507-219.813h38.283l70.188,219.813h-31.903L770.463,347.574z M763.125,323.007L728.99,208.156l-34.456,114.851H763.125z"/>
</g>
<g>
	<path fill="#757575" d="M339.234,437.394h-28.135v23.703h24.446v8.006h-24.446v24.863h30.137v8.007h-40.147v-72.585h39.305
		L339.234,437.394z"/>
	<path fill="#757575" d="M381.694,501.973h-10.748l-23.394-72.585H358.3l18.23,61.733l18.23-61.733h10.116L381.694,501.973z"/>
	<path fill="#757575" d="M471.045,465.733c0,24.019-12.433,37.505-30.663,37.505c-18.123,0-30.664-13.064-30.664-37.399
		c0-23.915,12.541-37.716,30.664-37.716C458.613,428.123,471.045,441.291,471.045,465.733z M420.361,465.838
		c0,20.965,8.221,29.182,20.021,29.182c12.223,0,20.021-8.217,20.021-29.287c0-20.859-7.588-29.394-20.021-29.394
		C428.263,436.339,420.361,444.874,420.361,465.838z"/>
	<path fill="#757575" d="M497.382,493.229h29.822l-1.161,8.744h-38.67v-72.585h10.009V493.229z"/>
	<path fill="#757575" d="M589.581,478.69c0,14.434-9.169,24.548-25.502,24.548c-16.544,0-25.29-10.114-25.29-24.548v-49.302h10.012
		v48.564c0,11.273,4.952,16.857,15.278,16.857c10.433,0,15.385-5.584,15.385-16.857v-48.564h10.117V478.69z"/>
	<path fill="#757575" d="M651.426,437.92h-20.124v64.053h-10.014V437.92h-20.652v-8.532h51.843L651.426,437.92z"/>
	<path fill="#757575" d="M674.077,501.973h-10.011v-72.585h10.011V501.973z"/>
	<path fill="#757575" d="M751.734,465.733c0,24.019-12.433,37.505-30.664,37.505c-18.124,0-30.661-13.064-30.661-37.399
		c0-23.915,12.537-37.716,30.661-37.716C739.301,428.123,751.734,441.291,751.734,465.733z M701.05,465.838
		c0,20.965,8.218,29.182,20.02,29.182c12.225,0,20.023-8.217,20.023-29.287c0-20.859-7.586-29.394-20.023-29.394
		C708.952,436.339,701.05,444.874,701.05,465.838z"/>
	<path fill="#757575" d="M818.956,501.973h-13.382l-29.506-61.63c0.527,6.005,1.37,14.854,1.37,28.34v33.29h-9.38v-72.585h13.068
		l29.82,61.733c-0.211-1.686-1.37-13.272-1.37-22.123v-39.61h9.379V501.973z"/>
</g>
</svg>
