<?xml version="1.0" encoding="UTF-8" standalone="no"?>
<!-- Generator: Adobe Illustrator 21.1.0, SVG Export Plug-In . SVG Version: 6.00 Build 0)  -->

<svg
   xmlns:dc="http://purl.org/dc/elements/1.1/"
   xmlns:cc="http://creativecommons.org/ns#"
   xmlns:rdf="http://www.w3.org/1999/02/22-rdf-syntax-ns#"
   xmlns:svg="http://www.w3.org/2000/svg"
   xmlns="http://www.w3.org/2000/svg"
   xmlns:sodipodi="http://sodipodi.sourceforge.net/DTD/sodipodi-0.dtd"
   xmlns:inkscape="http://www.inkscape.org/namespaces/inkscape"
   version="1.1"
   x="0px"
   y="0px"
   viewBox="0 0 190 100"
   xml:space="preserve"
   id="svg25"
   sodipodi:docname="ARCALOGO_Logistica.svg"
   width="100%"
   height="100%"
   inkscape:version="0.92.2 (5c3e80d, 2017-08-06)"><metadata
     id="metadata31"><rdf:RDF><cc:Work
         rdf:about=""><dc:format>image/svg+xml</dc:format><dc:type
           rdf:resource="http://purl.org/dc/dcmitype/StillImage" /><dc:title></dc:title></cc:Work></rdf:RDF></metadata><defs
     id="defs29" /><sodipodi:namedview
     pagecolor="#ffffff"
     bordercolor="#666666"
     borderopacity="1"
     objecttolerance="10"
     gridtolerance="10"
     guidetolerance="10"
     inkscape:pageopacity="0"
     inkscape:pageshadow="2"
     inkscape:window-width="1920"
     inkscape:window-height="1027"
     id="namedview27"
     showgrid="false"
     inkscape:zoom="3.1715102"
     inkscape:cx="104.54808"
     inkscape:cy="64.38079"
     inkscape:window-x="1912"
     inkscape:window-y="-8"
     inkscape:window-maximized="1"
     inkscape:current-layer="svg25" /><style
     type="text/css"
     id="style2">
	.st0{fill:#ED2F3C;}
	.st1{fill:none;}
	.st2{fill:#FFFFFF;}
	.st3{font-family:'FiraSans-Regular';}
	.st4{font-size:36px;}
	.st5{font-size:72px;}
	.st6{fill:#757576;}
	.st7{font-size:24px;}
</style><g
     id="g917"
     transform="translate(-89.999995,-26)"><g
       id="Livello_3"><path
         id="rect4"
         d="M 91.300003,29.700001 H 148.8 V 122.4 H 91.300003 Z"
         style="fill:#ed2f3c"
         inkscape:connector-curvature="0" /></g><g
       id="ARCA"><path
         id="rect7"
         d="m 90,47 h 199.10001 v 71 H 90 Z"
         style="fill:none"
         inkscape:connector-curvature="0" /><g
         id="text17"
         transform="translate(90,101)"
         aria-label="A"><path
           id="path884"
           style="font-style:normal;font-variant:normal;font-weight:normal;font-stretch:normal;font-size:72px;font-family:'Fira Sans';-inkscape-font-specification:'Fira Sans';fill:#ffffff"
           d="M 39.38,-12.456 H 20.588 L 16.844,0 H 9.932 l 15.912,-49.608 h 8.64 L 50.324,0 h -7.2 z M 37.724,-18 30.02,-43.92 22.244,-18 Z"
           inkscape:connector-curvature="0" /></g><g
         id="text17-1"
         aria-label="RCA"><path
           id="path887"
           style="fill:#ed2f3c;fill-opacity:1"
           d="m 172.49435,78.701014 h -7.704 v 21.024 h -6.84 v -49.608 h 13.032 q 9.288,0 14.04,3.528 4.824,3.528 4.824,10.512 0,5.184 -2.664,8.424 -2.664,3.24 -8.064,4.896 l 13.392,22.248 h -8.136 z m -0.792,-5.256 q 5.4,0 8.136,-2.16 2.736,-2.232 2.736,-7.128 0,-4.608 -2.808,-6.624 -2.736,-2.088 -8.856,-2.088 h -6.12 v 18 z"
           inkscape:connector-curvature="0" /><path
           id="path889"
           style="fill:#ed2f3c;fill-opacity:1"
           d="m 218.19298,49.253014 q 4.464,0 7.488,1.152 3.096,1.152 6.264,3.744 l -3.744,4.392 q -4.536,-3.672 -9.576,-3.672 -6.192,0 -10.008,4.752 -3.744,4.752 -3.744,15.264 0,10.224 3.744,15.12 3.744,4.824 9.936,4.824 3.168,0 5.472,-1.08 2.304,-1.08 5.04,-3.096 l 3.456,4.392 q -2.232,2.376 -5.904,3.96 -3.6,1.583996 -8.28,1.583996 -6.048,0 -10.8,-2.951996 -4.68,-3.024 -7.344,-8.784 -2.592,-5.832 -2.592,-13.968 0,-8.136 2.736,-13.896 2.736,-5.832 7.416,-8.784 4.68,-2.952 10.44,-2.952 z"
           inkscape:connector-curvature="0" /><path
           id="path891"
           style="fill:#ed2f3c;fill-opacity:1"
           d="m 263.88035,87.269014 h -18.792 l -3.744,12.456 h -6.912 l 15.912,-49.608 h 8.64 l 15.84,49.608 h -7.2 z m -1.656,-5.544 -7.704,-25.92 -7.776,25.92 z"
           inkscape:connector-curvature="0" /></g></g><g
       id="EVOLUTION"><path
         id="rect20"
         d="m 155.3,104 h 123 v 22 h -123 z"
         style="fill:none"
         inkscape:connector-curvature="0" /><g
         id="text22"
         style="font-size:24px;font-family:FiraSans-Regular;fill:#757576"
         aria-label="LOGISTICA"><path
           id="path863"
           style="font-style:normal;font-variant:normal;font-weight:normal;font-stretch:normal;font-family:'Fira Sans';-inkscape-font-specification:'Fira Sans'"
           d="m 160.37591,120.008 h 6.792 l -0.264,1.992 h -8.808 v -16.536 h 2.28 z"
           inkscape:connector-curvature="0" /><path
           id="path865"
           style="font-style:normal;font-variant:normal;font-weight:normal;font-stretch:normal;font-family:'Fira Sans';-inkscape-font-specification:'Fira Sans'"
           d="m 175.71866,105.176 q 2.088,0 3.648,1.008 1.584,0.984 2.448,2.904 0.888,1.92 0.888,4.656 0,2.688 -0.888,4.608 -0.864,1.92 -2.448,2.928 -1.56,1.008 -3.648,1.008 -2.088,0 -3.672,-0.984 -1.56,-0.984 -2.448,-2.904 -0.864,-1.92 -0.864,-4.632 0,-2.664 0.864,-4.608 0.888,-1.944 2.472,-2.952 1.584,-1.032 3.648,-1.032 z m 0,1.872 q -2.16,0 -3.36,1.632 -1.2,1.632 -1.2,5.088 0,3.432 1.2,5.04 1.224,1.608 3.36,1.608 4.56,0 4.56,-6.672 0,-6.696 -4.56,-6.696 z"
           inkscape:connector-curvature="0" /><path
           id="path867"
           style="font-style:normal;font-variant:normal;font-weight:normal;font-stretch:normal;font-family:'Fira Sans';-inkscape-font-specification:'Fira Sans'"
           d="m 192.45641,105.176 q 1.608,0 2.736,0.456 1.152,0.432 2.28,1.368 l -1.344,1.392 q -0.888,-0.72 -1.704,-1.032 -0.816,-0.312 -1.92,-0.312 -1.272,0 -2.352,0.696 -1.056,0.672 -1.728,2.184 -0.672,1.488 -0.672,3.792 0,3.48 1.128,5.088 1.152,1.608 3.384,1.608 1.848,0 3.144,-0.768 v -4.968 h -2.928 l -0.264,-1.848 h 5.448 v 7.992 q -1.2,0.72 -2.568,1.104 -1.344,0.36 -3,0.36 -3.144,0 -4.968,-2.184 -1.8,-2.184 -1.8,-6.384 0,-2.688 0.984,-4.608 0.984,-1.944 2.616,-2.928 1.632,-1.008 3.528,-1.008 z"
           inkscape:connector-curvature="0" /><path
           id="path869"
           style="font-style:normal;font-variant:normal;font-weight:normal;font-stretch:normal;font-family:'Fira Sans';-inkscape-font-specification:'Fira Sans'"
           d="m 203.82903,122 h -2.28 v -16.536 h 2.28 z"
           inkscape:connector-curvature="0" /><path
           id="path871"
           style="font-style:normal;font-variant:normal;font-weight:normal;font-stretch:normal;font-family:'Fira Sans';-inkscape-font-specification:'Fira Sans'"
           d="m 212.70716,105.176 q 1.656,0 2.832,0.48 1.176,0.456 2.28,1.44 l -1.248,1.392 q -0.936,-0.744 -1.848,-1.08 -0.888,-0.36 -1.92,-0.36 -1.296,0 -2.136,0.6 -0.84,0.6 -0.84,1.752 0,0.72 0.288,1.224 0.288,0.48 1.056,0.888 0.792,0.408 2.28,0.864 1.56,0.48 2.592,1.032 1.032,0.552 1.656,1.536 0.648,0.96 0.648,2.448 0,1.44 -0.72,2.544 -0.696,1.104 -2.04,1.728 -1.32,0.624 -3.144,0.624 -3.432,0 -5.616,-2.136 l 1.272,-1.416 q 0.984,0.84 2.016,1.272 1.032,0.408 2.304,0.408 1.536,0 2.544,-0.744 1.008,-0.768 1.008,-2.208 0,-0.816 -0.312,-1.344 -0.312,-0.552 -1.08,-0.984 -0.744,-0.432 -2.184,-0.864 -2.544,-0.768 -3.72,-1.848 -1.176,-1.08 -1.176,-2.928 0,-1.248 0.648,-2.232 0.672,-0.984 1.848,-1.536 1.2,-0.552 2.712,-0.552 z"
           inkscape:connector-curvature="0" /><path
           id="path873"
           style="font-style:normal;font-variant:normal;font-weight:normal;font-stretch:normal;font-family:'Fira Sans';-inkscape-font-specification:'Fira Sans'"
           d="m 230.99891,107.408 h -4.584 V 122 h -2.28 v -14.592 h -4.704 v -1.944 h 11.808 z"
           inkscape:connector-curvature="0" /><path
           id="path875"
           style="font-style:normal;font-variant:normal;font-weight:normal;font-stretch:normal;font-family:'Fira Sans';-inkscape-font-specification:'Fira Sans'"
           d="m 236.17278,122 h -2.28 v -16.536 h 2.28 z"
           inkscape:connector-curvature="0" /><path
           id="path877"
           style="font-style:normal;font-variant:normal;font-weight:normal;font-stretch:normal;font-family:'Fira Sans';-inkscape-font-specification:'Fira Sans'"
           d="m 246.75491,105.176 q 1.488,0 2.496,0.384 1.032,0.384 2.088,1.248 l -1.248,1.464 q -1.512,-1.224 -3.192,-1.224 -2.064,0 -3.336,1.584 -1.248,1.584 -1.248,5.088 0,3.408 1.248,5.04 1.248,1.608 3.312,1.608 1.056,0 1.824,-0.36 0.768,-0.36 1.68,-1.032 l 1.152,1.464 q -0.744,0.792 -1.968,1.32 -1.2,0.528 -2.76,0.528 -2.016,0 -3.6,-0.984 -1.56,-1.008 -2.448,-2.928 -0.864,-1.944 -0.864,-4.656 0,-2.712 0.912,-4.632 0.912,-1.944 2.472,-2.928 1.56,-0.984 3.48,-0.984 z"
           inkscape:connector-curvature="0" /><path
           id="path879"
           style="font-style:normal;font-variant:normal;font-weight:normal;font-stretch:normal;font-family:'Fira Sans';-inkscape-font-specification:'Fira Sans'"
           d="m 261.98403,117.848 h -6.264 l -1.248,4.152 h -2.304 l 5.304,-16.536 h 2.88 l 5.28,16.536 h -2.4 z m -0.552,-1.848 -2.568,-8.64 -2.592,8.64 z"
           inkscape:connector-curvature="0" /></g></g></g></svg>