<?xml version="1.0" encoding="UTF-8" standalone="no"?>
<svg
   xmlns:dc="http://purl.org/dc/elements/1.1/"
   xmlns:cc="http://creativecommons.org/ns#"
   xmlns:rdf="http://www.w3.org/1999/02/22-rdf-syntax-ns#"
   xmlns:svg="http://www.w3.org/2000/svg"
   xmlns="http://www.w3.org/2000/svg"
   height="100%"
   width="100%"
   xml:space="preserve"
   enable-background="new 0 0 566.929 425.197"
   viewBox="0 0 220 60"
   y="0px"
   x="0px"
   id="logo"
   version="1.1"><metadata
     id="metadata97"><rdf:RDF><cc:Work
         rdf:about=""><dc:format>image/svg+xml</dc:format><dc:type
           rdf:resource="http://purl.org/dc/dcmitype/StillImage" /><dc:title></dc:title></cc:Work></rdf:RDF></metadata><defs
     id="defs95" /><g
     transform="translate(-53.452,-43.377003)"
     id="g90"><g
       id="g10"><g
         id="g8"><g
           id="g6"><g
             id="g4"><rect
               style="opacity:0;fill:none"
               id="rect2"
               height="58.393002"
               width="216.851"
               y="44.984001"
               x="53.452" /></g></g></g></g><g
       id="g38"><path
         style="fill:#474747"
         id="path12"
         d="m 122.642,84.811 h -1.354 l -3.094,-8.692 c -0.256,-0.715 -0.562,-1.61 -0.869,-2.632 h -0.051 c -0.306,0.997 -0.613,1.841 -0.894,2.632 l -3.222,8.692 h -1.38 l -5.854,-16.924 h 2.021 l 3.758,11.248 c 0.306,0.946 0.587,1.789 0.817,2.633 h 0.049 c 0.231,-0.818 0.562,-1.661 0.895,-2.581 l 2.917,-7.977 -1.151,-3.323 h 1.969 l 3.859,11.145 c 0.331,0.973 0.665,1.789 0.896,2.608 h 0.05 c 0.204,-0.845 0.434,-1.61 0.741,-2.529 l 3.681,-11.224 h 1.969 z" /><path
         style="fill:#474747"
         id="path14"
         d="m 137.271,83.558 c -0.947,0.971 -2.276,1.509 -3.836,1.509 -1.508,0 -2.812,-0.512 -3.757,-1.483 -1.099,-1.123 -1.688,-2.836 -1.688,-4.831 0,-1.993 0.615,-3.655 1.688,-4.779 0.972,-0.996 2.274,-1.56 3.783,-1.56 1.56,0 2.863,0.563 3.836,1.56 1.071,1.124 1.686,2.786 1.686,4.779 0,1.994 -0.614,3.681 -1.712,4.805 m -3.81,-9.561 c -2.276,0 -3.578,1.841 -3.578,4.704 0,2.861 1.354,4.755 3.604,4.755 2.25,0 3.604,-1.894 3.604,-4.755 0,-2.863 -1.301,-4.704 -3.63,-4.704" /><path
         style="fill:#474747"
         id="path16"
         d="m 143.533,85.066 c -1.483,0 -2.122,-0.948 -2.122,-2.225 v -16.13 h 1.866 v 15.287 c 0,1.15 0.282,1.38 0.997,1.38 0.127,0 0.331,0 0.639,-0.074 l 0.229,1.353 c -0.561,0.282 -0.995,0.409 -1.609,0.409" /><path
         style="fill:#474747"
         id="path18"
         d="m 150.589,85.066 c -1.737,0 -2.583,-1.022 -2.583,-2.582 v -8.182 h -1.967 v -1.584 h 1.967 V 70.06 l 1.867,-0.638 v 3.297 h 3.707 l -0.665,1.584 h -3.042 v 7.619 c 0,1.023 0.383,1.482 1.177,1.482 0.868,0 1.661,-0.485 2.147,-0.869 l 0.586,1.329 c -0.894,0.664 -2.07,1.202 -3.194,1.202" /><path
         style="fill:#474747"
         id="path20"
         d="m 156.529,79.083 c 0,2.302 1.329,4.347 4.011,4.347 1.023,0 2.149,-0.409 2.864,-0.87 l 0.563,1.279 c -0.871,0.716 -2.404,1.228 -3.809,1.228 -3.783,0 -5.624,-3.094 -5.624,-6.545 0,-3.502 1.994,-6.108 4.907,-6.108 3.118,0 4.832,2.479 4.832,6.236 v 0.434 h -7.744 z m 2.939,-5.086 c -1.791,0 -2.915,1.585 -2.915,3.502 h 5.7 c 0,-1.686 -0.946,-3.502 -2.785,-3.502" /><path
         style="fill:#474747"
         id="path22"
         d="m 172.499,74.585 c -0.256,-0.102 -0.639,-0.205 -1.15,-0.205 -0.715,0 -1.891,0.615 -2.658,1.458 v 8.973 h -1.867 V 72.719 h 1.534 l 0.257,1.38 c 1.661,-1.508 2.582,-1.688 3.449,-1.688 0.537,0 0.998,0.205 1.228,0.359 z" /><path
         style="fill:#474747"
         id="path24"
         d="m 239.647,79.083 c 0,2.302 1.329,4.347 4.012,4.347 1.023,0 2.148,-0.409 2.863,-0.87 l 0.562,1.279 c -0.87,0.716 -2.402,1.228 -3.807,1.228 -3.785,0 -5.625,-3.094 -5.625,-6.545 0,-3.502 1.994,-6.108 4.908,-6.108 3.117,0 4.832,2.479 4.832,6.236 v 0.434 h -7.745 z m 2.939,-5.086 c -1.791,0 -2.916,1.585 -2.916,3.502 h 5.701 c 0.001,-1.686 -0.945,-3.502 -2.785,-3.502" /><path
         style="fill:#474747"
         id="path26"
         d="m 255.616,74.585 c -0.254,-0.102 -0.639,-0.205 -1.15,-0.205 -0.713,0 -1.891,0.615 -2.658,1.458 v 8.973 h -1.865 V 72.719 h 1.533 l 0.257,1.38 c 1.661,-1.508 2.581,-1.688 3.449,-1.688 0.537,0 0.999,0.205 1.228,0.359 z" /><path
         style="fill:#474747"
         id="path28"
         d="m 177.236,85.066 c -1.738,0 -2.786,-0.46 -3.579,-0.921 l 0.715,-1.457 c 0.564,0.356 1.611,0.869 2.941,0.869 1.482,0 2.557,-0.665 2.557,-1.79 0,-2.965 -5.498,-1.916 -5.498,-6.159 0,-1.739 1.255,-3.195 4.016,-3.195 1.278,0 2.248,0.278 3.041,0.638 v 1.637 c -0.842,-0.356 -1.711,-0.715 -2.966,-0.715 -1.227,0 -2.249,0.434 -2.249,1.533 0,2.709 5.6,2.021 5.6,5.98 -0.001,2.533 -2.097,3.58 -4.578,3.58" /><polygon
         style="fill:#474747"
         id="polygon30"
         points="191.602,67.964 191.602,75.71 191.628,75.71 197.891,68.016 200.217,68.016 193.288,76.298 200.83,84.811 198.352,84.811 191.628,77.193 191.602,77.193 191.602,84.811 189.737,84.811 189.737,67.964 " /><path
         style="fill:#474747"
         id="path32"
         d="m 204.743,85.066 c -1.484,0 -2.123,-0.948 -2.123,-2.225 v -16.13 h 1.865 v 15.287 c 0,1.15 0.281,1.38 0.998,1.38 0.127,0 0.332,0 0.639,-0.074 l 0.23,1.353 c -0.562,0.282 -0.998,0.409 -1.609,0.409" /><path
         style="fill:#474747"
         id="path34"
         d="m 216.293,84.811 -0.484,-1.253 c -0.895,0.767 -2.301,1.509 -3.912,1.509 -1.633,0 -3.678,-0.843 -3.678,-4.244 v -8.104 h 1.863 v 7.925 c 0,2.02 0.844,2.812 2.354,2.812 1.533,0 2.709,-0.972 3.219,-1.611 v -9.126 h 1.867 v 7.03 c 0,3.809 0.076,4.55 0.258,5.062 z" /><polygon
         style="fill:#474747"
         id="polygon36"
         points="228.104,75.121 225.114,84.811 223.479,84.811 219.438,72.719 221.331,72.719 224.295,82.254 224.372,82.254 227.364,72.719 229.051,72.719 232.067,82.28 232.143,82.28 235.057,72.719 236.872,72.719 232.885,84.811 231.198,84.811 228.18,75.121 " /></g><g
       id="g44"><g
         id="g42"><path
           style="fill:#474747"
           id="path40"
           d="m 97.673,82.608 h 0.682 c 0.139,0 0.261,0.017 0.35,0.052 0.287,0.084 0.427,0.302 0.427,0.552 0,0.354 -0.267,0.537 -0.516,0.597 v 0.01 c 0.149,0.075 0.382,0.511 0.644,0.992 H 98.748 C 98.46,84.288 98.289,83.942 98.194,83.934 h -0.076 v 0.877 h -0.445 z m 0.552,0.974 c 0.229,0 0.43,-0.091 0.43,-0.318 0,-0.135 -0.058,-0.237 -0.177,-0.268 -0.066,-0.029 -0.139,-0.034 -0.242,-0.034 h -0.118 v 0.62 z" /></g></g><path
       style="fill:#a0c4e6"
       id="path46"
       d="m 86.192,59.585 c -1.139,-0.275 -2.32,-0.428 -3.543,-0.428 -1.223,0 -2.406,0.152 -3.543,0.428 v 3.966 h 7.086 z" /><rect
       style="fill:#ef3e42"
       id="rect48"
       height="7.0869999"
       width="7.086"
       y="70.638"
       x="79.106003" /><rect
       style="fill:#9acd6e"
       id="rect50"
       height="7.086"
       width="7.086"
       y="77.724998"
       x="79.106003" /><path
       style="fill:#429ed6"
       id="path52"
       d="m 79.106,88.777 c 1.137,0.275 2.32,0.428 3.543,0.428 1.223,0 2.404,-0.152 3.543,-0.428 V 84.81 h -7.086 z" /><rect
       style="fill:#cae3b2"
       id="rect54"
       height="7.0869999"
       width="7.086"
       y="63.550999"
       x="79.106003" /><rect
       style="fill:#cae3b2"
       id="rect56"
       height="7.0869999"
       width="7.0869999"
       y="70.638"
       x="72.018997" /><rect
       style="fill:#7ac143"
       id="rect58"
       height="7.086"
       width="7.0869999"
       y="77.724998"
       x="72.018997" /><path
       style="fill:#007bc6"
       id="path60"
       d="m 72.019,84.811 c 1.919,1.919 4.36,3.307 7.087,3.967 v -3.967 z" /><rect
       style="fill:#9acd6e"
       id="rect62"
       height="7.0869999"
       width="7.0869999"
       y="63.550999"
       x="72.018997" /><path
       style="fill:#429ed6"
       id="path64"
       d="m 79.106,59.585 c -2.727,0.66 -5.168,2.047 -7.087,3.966 h 7.087 z" /><path
       style="fill:#007bc6"
       id="path66"
       d="m 72.019,84.811 v -7.086 l -3.966,-10e-4 c 0.661,2.725 2.047,5.169 3.966,7.087 z" /><path
       style="fill:#429ed6"
       id="path68"
       d="m 72.019,63.551 c -1.919,1.919 -3.305,4.361 -3.966,7.087 h 3.966 z" /><rect
       style="fill:#9acd6e"
       id="rect70"
       height="7.0869999"
       width="7.086"
       y="70.638"
       x="86.192001" /><rect
       style="fill:#7ac143"
       id="rect72"
       height="7.086"
       width="7.086"
       y="77.724998"
       x="86.192001" /><path
       style="fill:#007bc6"
       id="path74"
       d="m 93.279,84.811 h -7.086 v 3.967 c 2.724,-0.661 5.168,-2.047 7.086,-3.967 z" /><rect
       style="fill:#7ac143"
       id="rect76"
       height="7.0869999"
       width="7.086"
       y="63.550999"
       x="86.192001" /><path
       style="fill:#007bc6"
       id="path78"
       d="m 86.192,59.585 v 3.966 h 7.086 c -1.917,-1.919 -4.361,-3.307 -7.086,-3.966 z" /><path
       style="fill:#007bc6"
       id="path80"
       d="m 93.279,84.811 c 1.919,-1.918 3.305,-4.361 3.966,-7.087 l -3.966,10e-4 z" /><path
       style="fill:#007bc6"
       id="path82"
       d="m 93.279,63.551 v 7.087 h 3.966 C 96.584,67.912 95.199,65.47 93.279,63.551 Z" /><path
       style="fill:#a0c4e6"
       id="path84"
       d="m 68.053,70.638 c -0.275,1.14 -0.427,2.32 -0.427,3.543 0,1.223 0.152,2.405 0.427,3.543 l 3.966,10e-4 v -7.087 z" /><path
       style="fill:#429ed6"
       id="path86"
       d="m 97.245,77.724 c 0.275,-1.138 0.428,-2.32 0.428,-3.543 0,-1.223 -0.153,-2.403 -0.428,-3.543 h -3.966 v 7.087 z" /><path
       style="fill:#474747"
       id="path88"
       d="m 100.414,83.74 c 0,1.127 -0.914,2.041 -2.041,2.041 -1.127,0 -2.041,-0.914 -2.041,-2.041 0,-1.127 0.914,-2.041 2.041,-2.041 1.127,0 2.041,0.914 2.041,2.041 z m -2.042,-1.611 c -0.89,0 -1.611,0.722 -1.611,1.611 0,0.889 0.722,1.611 1.611,1.611 0.89,0 1.612,-0.722 1.612,-1.611 0,-0.889 -0.722,-1.611 -1.612,-1.611 z" /></g></svg>