<?xml version="1.0" encoding="UTF-8" standalone="no"?>
<svg
   xmlns:dc="http://purl.org/dc/elements/1.1/"
   xmlns:cc="http://creativecommons.org/ns#"
   xmlns:rdf="http://www.w3.org/1999/02/22-rdf-syntax-ns#"
   xmlns:svg="http://www.w3.org/2000/svg"
   xmlns="http://www.w3.org/2000/svg"
   height="100%"
   width="100%"
   xml:space="preserve"
   viewBox="0 0 100 100"
   y="0px"
   x="0px"
   id="Capa_1"
   version="1.1"><metadata
     id="metadata45"><rdf:RDF><cc:Work
         rdf:about=""><dc:format>image/svg+xml</dc:format><dc:type
           rdf:resource="http://purl.org/dc/dcmitype/StillImage" /><dc:title></dc:title></cc:Work></rdf:RDF></metadata><defs
     id="defs43" /><g
     transform="matrix(0.16339928,0,0,0.16339928,-0.06963994,-0.13908578)"
     id="g8"><g
       id="g6"><path fill="#FFF"
         id="path2"
         d="M 600.485,221.792 C 586.054,171.293 560.348,127.46 522.546,89.658 493.437,60.555 459.93,38.282 422.52,23.088 384.995,7.843 346.585,0 306.778,0 v 37.467 c 69.91,0 138.928,26.998 190.005,78.282 32.886,33.014 55.38,71.63 67.912,115.413 12.553,43.869 14.38,87.98 4.682,132.47 -9.699,44.489 -29.438,83.962 -59.548,118.418 l -52.184,-51.177 v 127.452 l 130.13,2.006 -52.184,-52.183 c 34.791,-39.479 57.871,-84.641 69.247,-135.153 11.369,-50.513 9.992,-101.012 -4.353,-151.203 z" /><path fill="#FFF"
         id="path4"
         d="M 47.854,382.03 C 35.322,338.254 33.802,294.05 43.501,249.56 53.207,205.063 73.275,165.255 103.384,130.8 l 52.183,51.854 V 54.531 L 25.438,53.189 77.293,104.708 c -34.791,39.473 -57.878,84.633 -69.247,135.146 -11.376,50.513 -10.084,101.04 4.346,151.539 14.344,50.198 40.143,94.003 77.946,131.806 29.103,29.104 62.609,51.377 100.02,66.57 37.532,15.244 76.276,23.08 116.42,23.08 v -36.797 c -70.924,0 -138.929,-27.325 -190.348,-78.944 C 83.544,464.087 60.408,425.898 47.854,382.03 Z" /></g></g><g
     id="g10" /><g
     id="g12" /><g
     id="g14" /><g
     id="g16" /><g
     id="g18" /><g
     id="g20" /><g
     id="g22" /><g
     id="g24" /><g
     id="g26" /><g
     id="g28" /><g
     id="g30" /><g
     id="g32" /><g
     id="g34" /><g
     id="g36" /><g
     id="g38" /></svg>