<?xml version="1.0" encoding="UTF-8" standalone="no"?>
<svg
   xmlns:dc="http://purl.org/dc/elements/1.1/"
   xmlns:cc="http://creativecommons.org/ns#"
   xmlns:rdf="http://www.w3.org/1999/02/22-rdf-syntax-ns#"
   xmlns:svg="http://www.w3.org/2000/svg"
   xmlns="http://www.w3.org/2000/svg"
   height="100%"
   width="100%"
   xml:space="preserve"
   viewBox="0 0 100 100"
   y="0px"
   x="0px"
   id="Capa_1"
   version="1.1"><metadata
     id="metadata45"><rdf:RDF><cc:Work
         rdf:about=""><dc:format>image/svg+xml</dc:format><dc:type
           rdf:resource="http://purl.org/dc/dcmitype/StillImage" /><dc:title></dc:title></cc:Work></rdf:RDF></metadata><defs
     id="defs43" /><g
     transform="matrix(0.19664949,0,0,0.19664949,0,-0.80003688)"
     id="g8"><g
       id="g6"><g
         id="g4"><path
           id="path2"
           d="M 508.075,318.079 444.955,63.311 C 436.024,43.447 419.815,31.529 402.239,31.529 H 103.293 c -17.544,0 -31.782,11.918 -39.728,31.782 L 0,317.571 V 461.1 c 0,8.772 7.119,15.891 15.891,15.891 h 476.737 c 8.74,0 15.891,-7.119 15.891,-15.891 V 319.573 Z m -37.059,-15.891 c 0,8.74 -7.151,15.891 -15.891,15.891 h -0.064 -121.345 c -8.74,0 -15.891,7.183 -15.891,15.891 v 31.274 c 0,8.74 -7.151,15.891 -15.891,15.891 l -0.922,0.509 h -93.885 l -0.54,-0.509 c -8.772,0 -15.891,-7.151 -15.891,-15.891 V 333.97 c 0,-8.708 -7.119,-15.891 -15.891,-15.891 H 53.458 53.394 c -8.772,0 -16.146,-7.151 -16.146,-15.891 L 36.93,301.934 93.599,73.894 C 95.061,70.62 98.78,63.31 103.293,63.31 h 298.946 c 4.354,0 9.376,4.481 12.904,11.315 l 55.969,227.499 z"
           style="fill:#090509" /></g></g></g><g
     id="g10" /><g
     id="g12" /><g
     id="g14" /><g
     id="g16" /><g
     id="g18" /><g
     id="g20" /><g
     id="g22" /><g
     id="g24" /><g
     id="g26" /><g
     id="g28" /><g
     id="g30" /><g
     id="g32" /><g
     id="g34" /><g
     id="g36" /><g
     id="g38" /></svg>