<?xml version="1.0" encoding="UTF-8" standalone="no"?>
<svg
   xmlns:dc="http://purl.org/dc/elements/1.1/"
   xmlns:cc="http://creativecommons.org/ns#"
   xmlns:rdf="http://www.w3.org/1999/02/22-rdf-syntax-ns#"
   xmlns:svg="http://www.w3.org/2000/svg"
   xmlns="http://www.w3.org/2000/svg"
   height="100%"
   width="100%"
   xml:space="preserve"
   viewBox="0 0 100 100"
   y="0px"
   x="0px"
   id="Capa_1"
   version="1.1"><metadata
     id="metadata43"><rdf:RDF><cc:Work
         rdf:about=""><dc:format>image/svg+xml</dc:format><dc:type
           rdf:resource="http://purl.org/dc/dcmitype/StillImage" /><dc:title></dc:title></cc:Work></rdf:RDF></metadata><defs
     id="defs41" /><g
     transform="matrix(0.20700377,0,0,0.20700377,0.01164289,-2.22291e-6)"
     id="g6"><g
       id="g4"><path
         id="path2"
         d="m 332.74,315.35 c 30.883,-33.433 50.15,-78.2 50.15,-127.5 C 382.89,84.433 298.74,0 195.04,0 91.34,0 7.19,84.433 7.19,187.85 c 0,103.417 84.15,187.85 187.85,187.85 42.217,0 81.033,-13.883 112.483,-37.4 l 139.683,139.683 c 3.4,3.4 7.65,5.1 11.9,5.1 4.25,0 8.783,-1.7 11.9,-5.1 6.517,-6.517 6.517,-17.283 0,-24.083 z M 41.19,187.85 C 41.19,103.133 110.04,34 195.04,34 c 84.717,0 153.85,68.85 153.85,153.85 0,85 -68.85,153.85 -153.85,153.85 -85,0 -153.85,-69.133 -153.85,-153.85 z" /></g></g><g
     id="g8" /><g
     id="g10" /><g
     id="g12" /><g
     id="g14" /><g
     id="g16" /><g
     id="g18" /><g
     id="g20" /><g
     id="g22" /><g
     id="g24" /><g
     id="g26" /><g
     id="g28" /><g
     id="g30" /><g
     id="g32" /><g
     id="g34" /><g
     id="g36" /></svg>