<svg id="Livello_1" data-name="Livello 1" xmlns="http://www.w3.org/2000/svg" viewBox="0 0 433.08 195"><defs><style>.cls-1{fill:red;}</style></defs><title>Disable</title><path class="cls-1" d="M308.07,202.75h208c3.74.28,7.49.77,11.24.8,47.34.42,84.67,30,95.33,75.6.9,3.85,1.63,7.74,2.44,11.6v20a28.86,28.86,0,0,0-1,3.69c-5.49,40.54-36.83,73.38-77,80.45-7.27,1.28-14.65,1.93-22,2.86h-233c-2.92-.33-5.83-.87-8.75-1-25.56-.84-47.15-10.44-64.57-29.2-43.36-46.69-32.53-120.44,22.18-151.44,15.79-9,33.06-11.74,50.87-12.42C297.23,203.53,302.65,203.09,308.07,202.75ZM408.4,371.25c38.49,0,77,.05,115.47-.06a111.1,111.1,0,0,0,17.38-1.39c32.3-5.27,57.47-35.07,57.86-68.23.4-34.07-23.36-63.95-56.07-69.81a152.44,152.44,0,0,0-26.32-2.08q-105.47-.24-210.94-.08c-6.66,0-13.34-.21-20,.17-48.63,2.77-75.65,47.52-65.36,88.84,7.73,31.07,36.41,52.54,69.5,52.62C329.42,371.31,368.91,371.25,408.4,371.25Z" transform="translate(-192.03 -202.75)"/><path class="cls-1" d="M580.57,301c-.93,32.29-25.6,55.87-57.5,55-29.9-.86-54.5-26.42-53.81-55.91.74-31.17,26.19-55.85,56.8-55.08C557,245.7,581.44,270.79,580.57,301Z" transform="translate(-192.03 -202.75)"/><path class="cls-1" d="M288.13,299.89c-5.57-6.42-11.2-12.34-16.18-18.77-6.35-8.2-2.8-18.6,6.77-20.88,4.85-1.15,8.85.62,12.26,3.92,2.62,2.55,5.1,5.26,7.61,7.92s4.76,5.09,7.53,8.07c3.59-3.89,7-7.66,10.48-11.36a54.62,54.62,0,0,1,6-5.93c5.43-4.2,12.2-3.87,16.88.56s5.61,10.85,1.69,16.34c-3.66,5.13-8.12,9.68-12.24,14.47-1.61,1.87-3.26,3.71-5,5.7,5.48,6.23,10.88,12.09,16,18.23,4.53,5.48,4.8,11.78,1.22,16.54-4.78,6.34-13.2,7.11-19.28,1.59-2.71-2.45-5.15-5.21-7.66-7.87s-4.95-5.38-7.95-8.64c-3.76,4-7.37,8-11.14,11.86a43.07,43.07,0,0,1-7,6.28,12.25,12.25,0,0,1-15.92-2c-4.31-4.59-5-10.79-.95-15.94C276.5,313.2,282.31,306.77,288.13,299.89Z" transform="translate(-192.03 -202.75)"/></svg>