<?xml version="1.0" encoding="UTF-8" standalone="no"?>
<svg
   xmlns:dc="http://purl.org/dc/elements/1.1/"
   xmlns:cc="http://creativecommons.org/ns#"
   xmlns:rdf="http://www.w3.org/1999/02/22-rdf-syntax-ns#"
   xmlns:svg="http://www.w3.org/2000/svg"
   xmlns="http://www.w3.org/2000/svg"
   height="100%"
   width="100%"
   xml:space="preserve"
   viewBox="0 0 100 100"
   y="0px"
   x="0px"
   id="Layer_1"
   version="1.1"><metadata
     id="metadata67"><rdf:RDF><cc:Work
         rdf:about=""><dc:format>image/svg+xml</dc:format><dc:type
           rdf:resource="http://purl.org/dc/dcmitype/StillImage" /><dc:title></dc:title></cc:Work></rdf:RDF></metadata><defs
     id="defs65" /><g
     transform="matrix(0.19531288,0,0,0.19531288,0.49216316,7.5288e-7)"
     id="g892"><g
       id="g6"><g
         id="g4"><path fill="#295893"
           d="m 447.933,103.629 c -0.034,-3.076 -1.224,-6.09 -3.485,-8.352 L 352.683,3.511 C 352.679,3.507 352.676,3.506 352.672,3.503 350.505,1.338 347.511,0 344.206,0 H 89.278 C 75.361,0 64.04,11.32 64.04,25.237 v 461.525 c 0,13.916 11.32,25.237 25.237,25.237 h 333.444 c 13.916,0 25.237,-11.32 25.237,-25.237 V 103.753 c 0.002,-0.044 -0.021,-0.081 -0.025,-0.124 z m -91.739,-62.698 50.834,50.834 h -49.572 c -0.695,0 -1.262,-0.567 -1.262,-1.262 z m 67.789,445.832 c 0,0.695 -0.566,1.261 -1.261,1.261 H 89.278 c -0.695,0 -1.261,-0.566 -1.261,-1.261 V 25.237 c 0,-0.695 0.566,-1.261 1.261,-1.261 h 242.94 v 66.527 c 0,13.916 11.322,25.239 25.239,25.239 h 66.527 v 371.021 z"
           id="path2" /></g></g><g
       id="g12"><g
         id="g10"><path fill="#295893"
           d="M 362.088,164.014 H 149.912 c -6.62,0 -11.988,5.367 -11.988,11.988 0,6.62 5.368,11.988 11.988,11.988 h 212.175 c 6.62,0 11.988,-5.368 11.988,-11.988 0.001,-6.621 -5.368,-11.988 -11.987,-11.988 z"
           id="path8" /></g></g><g
       id="g18"><g
         id="g16"><path fill="#295893"
           d="M 362.088,236.353 H 149.912 c -6.62,0 -11.988,5.368 -11.988,11.988 0,6.62 5.368,11.988 11.988,11.988 h 212.175 c 6.62,0 11.988,-5.368 11.988,-11.988 0.001,-6.62 -5.368,-11.988 -11.987,-11.988 z"
           id="path14" /></g></g><g
       id="g24"><g
         id="g22"><path fill="#295893"
           d="M 362.088,308.691 H 149.912 c -6.62,0 -11.988,5.368 -11.988,11.988 0,6.621 5.368,11.988 11.988,11.988 h 212.175 c 6.62,0 11.988,-5.367 11.988,-11.988 0.001,-6.619 -5.368,-11.988 -11.987,-11.988 z"
           id="path20" /></g></g><g
       id="g30"><g
         id="g28"><path fill="#295893"
           d="M 256,381.031 H 149.912 c -6.62,0 -11.988,5.368 -11.988,11.988 0,6.621 5.368,11.988 11.988,11.988 H 256 c 6.62,0 11.988,-5.367 11.988,-11.988 0,-6.621 -5.368,-11.988 -11.988,-11.988 z"
           id="path26" /></g></g></g><g
     id="g32" /><g
     id="g34" /><g
     id="g36" /><g
     id="g38" /><g
     id="g40" /><g
     id="g42" /><g
     id="g44" /><g
     id="g46" /><g
     id="g48" /><g
     id="g50" /><g
     id="g52" /><g
     id="g54" /><g
     id="g56" /><g
     id="g58" /><g
     id="g60" /></svg>