<?xml version="1.0" encoding="UTF-8" standalone="no"?>
<svg
   xmlns:dc="http://purl.org/dc/elements/1.1/"
   xmlns:cc="http://creativecommons.org/ns#"
   xmlns:rdf="http://www.w3.org/1999/02/22-rdf-syntax-ns#"
   xmlns:svg="http://www.w3.org/2000/svg"
   xmlns="http://www.w3.org/2000/svg"
   height="100%"
   width="100%"
   xml:space="preserve"
   viewBox="0 0 100 100"
   y="0px"
   x="0px"
   id="Capa_1"
   version="1.1"><metadata
     id="metadata47"><rdf:RDF><cc:Work
         rdf:about=""><dc:format>image/svg+xml</dc:format><dc:type
           rdf:resource="http://purl.org/dc/dcmitype/StillImage" /><dc:title></dc:title></cc:Work></rdf:RDF></metadata><defs
     id="defs45" /><g
     transform="matrix(0.20597322,0,0,0.20597322,-0.298661,1.69e-6)"
     id="g10"><g
       id="g8"><path fill="#295893"
         id="path2"
         d="M 422.1,126.2 H 126.4 C 99,126.2 76.6,103.9 76.6,76.4 76.6,49 98.9,26.6 126.4,26.6 h 295.8 c 7.4,0 13.3,-6 13.3,-13.3 C 435.5,5.9 429.5,0 422.2,0 H 126.4 C 84.3,0 50,34.3 50,76.4 v 332.7 c 0,42.1 34.3,76.4 76.4,76.4 h 295.8 c 7.4,0 13.3,-6 13.3,-13.3 V 139.5 c -0.1,-7.3 -6,-13.3 -13.4,-13.3 z M 408.8,458.9 H 126.4 C 99,458.9 76.6,436.6 76.6,409.1 V 134.4 c 13.4,11.5 30.8,18.5 49.8,18.5 h 282.4 z" /><path fill="#295893"
         id="path4"
         d="m 130.6,64.3 c -7.4,0 -13.3,6 -13.3,13.3 0,7.3 6,13.3 13.3,13.3 h 249.8 c 7.4,0 13.3,-6 13.3,-13.3 0,-7.3 -6,-13.3 -13.3,-13.3 z" /><path fill="#295893"
         id="path6"
         d="m 177.4,400.7 c 1.5,0.5 3,0.8 4.5,0.8 5.5,0 10.6,-3.4 12.5,-8.8 l 16.2,-45.3 H 273 c 0.5,0 1.1,0 1.6,-0.1 l 16.2,45.4 c 1.9,5.4 7.1,8.8 12.5,8.8 1.5,0 3,-0.3 4.5,-0.8 6.9,-2.5 10.5,-10.1 8,-17 L 255.2,213.8 v 0 c -0.1,-0.4 -0.3,-0.8 -0.5,-1.2 -0.1,-0.2 -0.2,-0.4 -0.3,-0.6 -0.1,-0.2 -0.2,-0.4 -0.3,-0.6 -0.1,-0.2 -0.3,-0.4 -0.4,-0.7 -0.1,-0.1 -0.2,-0.3 -0.3,-0.4 -0.1,-0.2 -0.3,-0.4 -0.5,-0.6 -0.1,-0.1 -0.2,-0.3 -0.4,-0.4 -0.1,-0.2 -0.3,-0.3 -0.5,-0.5 -0.2,-0.2 -0.3,-0.3 -0.5,-0.5 -0.1,-0.1 -0.3,-0.2 -0.4,-0.4 -0.2,-0.2 -0.4,-0.3 -0.6,-0.5 -0.1,-0.1 -0.3,-0.2 -0.4,-0.3 -0.2,-0.1 -0.4,-0.3 -0.6,-0.4 -0.2,-0.1 -0.4,-0.2 -0.6,-0.3 -0.2,-0.1 -0.4,-0.2 -0.6,-0.3 -0.4,-0.2 -0.8,-0.4 -1.2,-0.5 v 0 H 247 c -0.4,-0.1 -0.8,-0.2 -1.2,-0.3 -0.2,0 -0.3,-0.1 -0.5,-0.1 -0.3,-0.1 -0.5,-0.1 -0.8,-0.2 -0.2,0 -0.4,0 -0.6,-0.1 -0.2,0 -0.5,-0.1 -0.7,-0.1 -0.2,0 -0.4,0 -0.6,0 -0.2,0 -0.4,0 -0.7,0 -0.2,0 -0.5,0 -0.7,0.1 -0.2,0 -0.4,0 -0.6,0.1 -0.3,0 -0.5,0.1 -0.8,0.2 -0.2,0 -0.3,0.1 -0.5,0.1 -0.4,0.1 -0.8,0.2 -1.1,0.3 h -0.1 v 0 c -0.4,0.1 -0.8,0.3 -1.2,0.5 -0.2,0.1 -0.4,0.2 -0.6,0.3 -0.2,0.1 -0.4,0.2 -0.6,0.3 -0.2,0.1 -0.4,0.3 -0.7,0.4 -0.1,0.1 -0.3,0.2 -0.4,0.3 -0.2,0.2 -0.4,0.3 -0.6,0.5 -0.1,0.1 -0.3,0.2 -0.4,0.4 -0.2,0.2 -0.3,0.3 -0.5,0.5 -0.2,0.2 -0.3,0.3 -0.5,0.5 -0.1,0.1 -0.2,0.3 -0.4,0.4 -0.2,0.2 -0.3,0.4 -0.5,0.6 -0.1,0.1 -0.2,0.3 -0.3,0.4 -0.1,0.2 -0.3,0.4 -0.4,0.6 -0.1,0.2 -0.2,0.4 -0.3,0.6 -0.1,0.2 -0.2,0.4 -0.3,0.6 -0.2,0.4 -0.4,0.8 -0.5,1.2 v 0 l -60.8,169.9 c -2.2,7 1.4,14.6 8.3,17.1 z m 65.3,-142.9 22.5,63 h -45.1 z" /></g></g><g
     id="g12" /><g
     id="g14" /><g
     id="g16" /><g
     id="g18" /><g
     id="g20" /><g
     id="g22" /><g
     id="g24" /><g
     id="g26" /><g
     id="g28" /><g
     id="g30" /><g
     id="g32" /><g
     id="g34" /><g
     id="g36" /><g
     id="g38" /><g
     id="g40" /></svg>