<?xml version="1.0" encoding="UTF-8" standalone="no"?>
<svg
   xmlns:dc="http://purl.org/dc/elements/1.1/"
   xmlns:cc="http://creativecommons.org/ns#"
   xmlns:rdf="http://www.w3.org/1999/02/22-rdf-syntax-ns#"
   xmlns:svg="http://www.w3.org/2000/svg"
   xmlns="http://www.w3.org/2000/svg"
   height="100%"
   width="100%"
   xml:space="preserve"
   viewBox="0 0 100 100"
   y="0px"
   x="0px"
   id="Capa_1"
   version="1.1"><metadata
     id="metadata41"><rdf:RDF><cc:Work
         rdf:about=""><dc:format>image/svg+xml</dc:format><dc:type
           rdf:resource="http://purl.org/dc/dcmitype/StillImage" /><dc:title></dc:title></cc:Work></rdf:RDF></metadata><defs
     id="defs39" /><g
     transform="matrix(1.0830782,0,0,1.0830782,0.23886298,-6.10206e-4)"
     id="g4"><path fill="#A8A69C"
       id="path2"
       d="m 70.598,16.753 c -1.722,-1.24 -4.113,-0.852 -5.349,0.866 -1.242,1.716 -0.853,4.113 0.865,5.35 13.613,9.818 18.021,27.857 10.482,42.89 C 72.514,73.997 65.508,80.061 56.87,82.925 48.234,85.796 38.993,85.125 30.857,81.046 22.723,76.963 16.66,69.958 13.791,61.324 10.925,52.682 11.594,43.447 15.677,35.31 20.635,25.42 30.135,18.531 41.09,16.881 c 0.074,-0.008 0.137,-0.036 0.211,-0.053 l 0.157,7.571 c 0.021,0.839 0.542,1.585 1.321,1.889 0.782,0.305 1.672,0.11 2.25,-0.496 L 55.933,14.413 c 0.794,-0.828 0.764,-2.142 -0.062,-2.933 L 44.492,0.577 C 43.886,-0.005 42.993,-0.162 42.225,0.178 41.974,0.286 41.749,0.447 41.563,0.64 41.191,1.029 40.978,1.559 40.984,2.119 l 0.151,7.212 C 40.75,9.268 40.355,9.244 39.947,9.304 26.529,11.325 14.895,19.764 8.822,31.875 -1.499,52.451 6.85,77.584 27.424,87.901 c 5.989,3.005 12.362,4.429 18.646,4.429 15.306,0 30.065,-8.439 37.382,-23.028 9.236,-18.418 3.832,-40.52 -12.854,-52.549 z" /></g><g
     id="g6" /><g
     id="g8" /><g
     id="g10" /><g
     id="g12" /><g
     id="g14" /><g
     id="g16" /><g
     id="g18" /><g
     id="g20" /><g
     id="g22" /><g
     id="g24" /><g
     id="g26" /><g
     id="g28" /><g
     id="g30" /><g
     id="g32" /><g
     id="g34" /></svg>