<?xml version="1.0" encoding="UTF-8" standalone="no"?>
<svg
   xmlns:dc="http://purl.org/dc/elements/1.1/"
   xmlns:cc="http://creativecommons.org/ns#"
   xmlns:rdf="http://www.w3.org/1999/02/22-rdf-syntax-ns#"
   xmlns:svg="http://www.w3.org/2000/svg"
   xmlns="http://www.w3.org/2000/svg"
   height="100%"
   width="100%"
   xml:space="preserve"
   viewBox="0 0 100 100"
   y="0px"
   x="0px"
   id="Capa_1"
   version="1.1"><metadata
     id="metadata49"><rdf:RDF><cc:Work
         rdf:about=""><dc:format>image/svg+xml</dc:format><dc:type
           rdf:resource="http://purl.org/dc/dcmitype/StillImage" /><dc:title></dc:title></cc:Work></rdf:RDF></metadata><defs
     id="defs47" /><g
     transform="matrix(0.20559211,0,0,0.20559211,-0.03042776,-2.304e-6)"
     id="g12"><g
       id="g10"><path fill="#C7C6BF" 
          id="path2" 
          d="M 446,70 H 344.8 V 53.5 C 344.8,24 320.8,0 291.3,0 H 195.1 C 165.6,0 141.6,24 141.6,53.5 V 70 H 40.4 c -7.5,0 -13.5,6 -13.5,13.5 0,7.5 6,13.5 13.5,13.5 h 24.4 v 317.2 c 0,39.8 32.4,72.2 72.2,72.2 h 212.4 c 39.8,0 72.2,-32.4 72.2,-72.2 V 97 H 446 c 7.5,0 13.5,-6 13.5,-13.5 C 459.5,76 453.5,70 446,70 Z M 168.6,53.5 C 168.6,38.9 180.5,27 195.1,27 h 96.2 c 14.6,0 26.5,11.9 26.5,26.5 V 70 H 168.6 Z m 226,360.7 c 0,24.9 -20.3,45.2 -45.2,45.2 H 137 c -24.9,0 -45.2,-20.3 -45.2,-45.2 V 97 h 302.9 v 317.2 z" />
       <path  fill="#C7C6BF" 
          id="path4" 
          d="m 243.2,411 c 7.5,0 13.5,-6 13.5,-13.5 V 158.9 c 0,-7.5 -6,-13.5 -13.5,-13.5 -7.5,0 -13.5,6 -13.5,13.5 v 238.5 c 0,7.5 6,13.6 13.5,13.6 z" />
       <path fill="#C7C6BF"
         id="path6"
         d="m 155.1,396.1 c 7.5,0 13.5,-6 13.5,-13.5 V 173.7 c 0,-7.5 -6,-13.5 -13.5,-13.5 -7.5,0 -13.5,6 -13.5,13.5 v 208.9 c 0,7.5 6.1,13.5 13.5,13.5 z" />
       <path fill="#C7C6BF"
         id="path8"
         d="m 331.3,396.1 c 7.5,0 13.5,-6 13.5,-13.5 V 173.7 c 0,-7.5 -6,-13.5 -13.5,-13.5 -7.5,0 -13.5,6 -13.5,13.5 v 208.9 c 0,7.5 6,13.5 13.5,13.5 z" /></g></g><g
     id="g14" /><g
     id="g16" /><g
     id="g18" /><g
     id="g20" /><g
     id="g22" /><g
     id="g24" /><g
     id="g26" /><g
     id="g28" /><g
     id="g30" /><g
     id="g32" /><g
     id="g34" /><g
     id="g36" /><g
     id="g38" /><g
     id="g40" /><g
     id="g42" /></svg>