<svg id="Livello_1" data-name="Livello 1" xmlns="http://www.w3.org/2000/svg" viewBox="0 0 433.32 194.11"><defs><style>.cls-1{fill:#8cc63f;}</style></defs><title>Enable</title><path class="cls-1" d="M521.43,398.32h-241c-3.53-.65-7.05-1.37-10.59-1.92-54.75-8.57-91.76-65.09-77.73-118.73,11.81-45.11,49.41-73.39,97.87-73.43q118-.08,235.95,0c41.89,0,79.7,28.15,91.49,68.37,2.26,7.72,3.38,15.77,5,23.67v10c-.67,3.86-1.38,7.71-2,11.58-6.34,40.34-40.52,73.64-80.87,78.67C533.55,397.27,527.48,397.72,521.43,398.32Zm-116-26.18v.16c32.66,0,65.32.08,98,0,10.82,0,21.7.1,32.43-1.06,35.91-3.86,65-41.46,60-77.08-5.38-39-34.09-64-73.56-64q-117.24,0-234.46,0a87.55,87.55,0,0,0-13.91,1.1c-36.68,6-61.71,39.12-58.52,77.37,2.89,34.78,34.51,63.51,70,63.54Q345.45,372.18,405.43,372.14Z" transform="translate(-189.12 -204.21)"/><path class="cls-1" d="M288.66,356.33c-30.76-.06-54.8-24.45-54.75-55.53a55.3,55.3,0,0,1,55.21-55.39c30.49,0,55.63,25.29,55.45,55.84C344.38,332.19,319.8,356.4,288.66,356.33Z" transform="translate(-189.12 -204.21)"/><path class="cls-1" d="M482.93,306.08c9.78-11,19.25-21.77,28.79-32.45a31.55,31.55,0,0,1,5.38-5.15,12.24,12.24,0,0,1,16.31,1.92c4.34,4.69,5,11.66.8,16.41q-20.54,23.51-41.45,46.66c-4.62,5.11-11.54,5.63-16.53.93-9.57-9-18.86-18.34-27.94-27.86-4.55-4.77-3.84-12.66.8-17.21a12.74,12.74,0,0,1,17.65-.19C472.26,294.42,477.32,300.17,482.93,306.08Z" transform="translate(-189.12 -204.21)"/></svg>