<?xml version="1.0" encoding="UTF-8" standalone="no"?>
<svg
   xmlns:dc="http://purl.org/dc/elements/1.1/"
   xmlns:cc="http://creativecommons.org/ns#"
   xmlns:rdf="http://www.w3.org/1999/02/22-rdf-syntax-ns#"
   xmlns:svg="http://www.w3.org/2000/svg"
   xmlns="http://www.w3.org/2000/svg"
   height="100%"
   width="100%"
   xml:space="preserve"
   viewBox="0 0 100 100"
   y="0px"
   x="0px"
   id="Layer_1"
   version="1.1"><metadata
     id="metadata47"><rdf:RDF><cc:Work
         rdf:about=""><dc:format>image/svg+xml</dc:format><dc:type
           rdf:resource="http://purl.org/dc/dcmitype/StillImage" /><dc:title></dc:title></cc:Work></rdf:RDF></metadata><defs
     id="defs45" /><g
     transform="matrix(0.19531403,0,0,0.19531403,0.23375643,-2.1038804e-6)"
     id="g10"><g
       id="g8"><g
         id="g6"><path fill="#000000"
           id="path2"
           d="m 349.85,62.196 c -10.797,-4.717 -23.373,0.212 -28.09,11.009 -4.717,10.797 0.212,23.373 11.009,28.09 69.412,30.324 115.228,98.977 115.228,176.035 0,106.034 -85.972,192 -192,192 -106.042,0 -192,-85.958 -192,-192 0,-77.041 45.8,-145.694 115.192,-176.038 10.795,-4.72 15.72,-17.298 10.999,-28.093 C 185.468,62.404 172.89,57.479 162.095,62.2 77.306,99.275 21.331,183.181 21.331,277.329 c 0,129.606 105.061,234.667 234.667,234.667 129.592,0 234.667,-105.068 234.667,-234.667 0,-94.17 -55.998,-178.08 -140.815,-215.133 z" /><path fill="#000000"
           id="path4"
           d="m 255.989,234.667 c 11.782,0 21.333,-9.551 21.333,-21.333 v -192 C 277.323,9.551 267.771,0 255.989,0 244.207,0 234.656,9.551 234.656,21.333 v 192 c 0,11.782 9.551,21.334 21.333,21.334 z" /></g></g></g><g
     id="g12" /><g
     id="g14" /><g
     id="g16" /><g
     id="g18" /><g
     id="g20" /><g
     id="g22" /><g
     id="g24" /><g
     id="g26" /><g
     id="g28" /><g
     id="g30" /><g
     id="g32" /><g
     id="g34" /><g
     id="g36" /><g
     id="g38" /><g
     id="g40" /></svg>