<?xml version="1.0" encoding="utf-8"?>
<!-- Generator: Adobe Illustrator 16.0.0, SVG Export Plug-In . SVG Version: 6.00 Build 0)  -->
<!DOCTYPE svg PUBLIC "-//W3C//DTD SVG 1.1//EN" "http://www.w3.org/Graphics/SVG/1.1/DTD/svg11.dtd">
<svg version="1.1" id="Capa_1" xmlns="http://www.w3.org/2000/svg" xmlns:xlink="http://www.w3.org/1999/xlink" x="0px" y="0px"
	 width="402.578px" height="402.578px" viewBox="0 0 402.578 402.578" enable-background="new 0 0 402.578 402.578"
	 xml:space="preserve">
<path fill="#FFFFFF" d="M400.857,11.428c-3.24-7.421-8.852-11.132-16.854-11.136H18.564c-7.993,0-13.61,3.715-16.846,11.136
	c-3.234,7.801-1.903,14.467,3.999,19.985l76.724,76.722l64.033,64.031V310.92c0,4.955,1.809,9.232,5.424,12.855l73.084,73.082
	c3.43,3.611,7.711,5.428,12.852,5.428c2.281,0,4.66-0.479,7.137-1.43c7.426-3.238,11.139-8.854,11.139-16.848V172.167
	L396.861,31.414C402.766,25.896,404.094,19.232,400.857,11.428z"/>
<line fill="none" stroke="#FFFFFF" stroke-width="40" stroke-miterlimit="10" x1="72.789" y1="289.289" x2="342.637" y2="163.638"/>
</svg>
