<?xml version="1.0" encoding="UTF-8" standalone="no"?>
<svg
   xmlns:dc="http://purl.org/dc/elements/1.1/"
   xmlns:cc="http://creativecommons.org/ns#"
   xmlns:rdf="http://www.w3.org/1999/02/22-rdf-syntax-ns#"
   xmlns:svg="http://www.w3.org/2000/svg"
   xmlns="http://www.w3.org/2000/svg"
   height="100%"
   width="100%"
   xml:space="preserve"
   viewBox="0 0 100 100"
   y="0px"
   x="0px"
   id="Capa_1"
   version="1.1"><metadata
     id="metadata45"><rdf:RDF><cc:Work
         rdf:about=""><dc:format>image/svg+xml</dc:format><dc:type
           rdf:resource="http://purl.org/dc/dcmitype/StillImage" /><dc:title></dc:title></cc:Work></rdf:RDF></metadata><defs
     id="defs43" /><g
     transform="matrix(0.19666796,0,0,0.19666796,-7.8899081e-6,0.04130342)"
     id="g8"><g
       id="g6"><g
         id="g4"><path
           id="path2"
           d="M 502.519,225.91 264.151,35.215 c -5.816,-4.64 -14.048,-4.64 -19.864,0 l -85.4,68.332 V 63.533 c 0,-17.544 -14.239,-31.782 -31.782,-31.782 -17.543,0 -31.783,14.238 -31.783,31.782 v 90.866 L 5.95,225.91 c -6.833,5.498 -7.946,15.478 -2.479,22.375 5.467,6.833 15.446,7.946 22.311,2.479 L 63.54,220.57 v 224.384 c 0,17.544 14.239,31.782 31.782,31.782 h 95.347 c 17.544,0 31.782,-14.239 31.782,-31.782 v -127.13 h 63.565 v 127.13 c 0,17.544 14.239,31.782 31.782,31.782 h 95.347 c 17.544,0 31.783,-14.239 31.783,-31.782 V 220.57 l 37.758,30.193 c 2.892,2.32 6.452,3.464 9.916,3.464 4.64,0 9.28,-2.034 12.459,-5.975 5.404,-6.833 4.26,-16.812 -2.542,-22.342 z M 413.115,444.954 H 317.768 V 286.042 H 190.638 V 444.954 H 95.291 V 195.176 L 254.203,68.014 413.115,195.144 Z"
           style="fill:#010002" /></g></g></g><g
     id="g10" /><g
     id="g12" /><g
     id="g14" /><g
     id="g16" /><g
     id="g18" /><g
     id="g20" /><g
     id="g22" /><g
     id="g24" /><g
     id="g26" /><g
     id="g28" /><g
     id="g30" /><g
     id="g32" /><g
     id="g34" /><g
     id="g36" /><g
     id="g38" /></svg>