<?xml version="1.0" encoding="UTF-8" standalone="no"?>
<svg
   xmlns:dc="http://purl.org/dc/elements/1.1/"
   xmlns:cc="http://creativecommons.org/ns#"
   xmlns:rdf="http://www.w3.org/1999/02/22-rdf-syntax-ns#"
   xmlns:svg="http://www.w3.org/2000/svg"
   xmlns="http://www.w3.org/2000/svg"
   height="100%"
   width="100%"
   xml:space="preserve"
   enable-background="new 0 0 512 512"
   viewBox="0 0 100 100"
   y="0px"
   x="0px"
   id="Artwork"
   version="1.1"><metadata
     id="metadata35"><rdf:RDF><cc:Work
         rdf:about=""><dc:format>image/svg+xml</dc:format><dc:type
           rdf:resource="http://purl.org/dc/dcmitype/StillImage" /><dc:title></dc:title></cc:Work></rdf:RDF></metadata><defs
     id="defs33" /><g
     transform="matrix(0.20408163,0,0,0.20408163,-2.2448979,-1.9959173)"
     id="g28"><path
       id="path2"
       d="M 501,379 V 133 c 0,-14.7 -12.7,-26.7 -28.3,-26.7 H 39.3 C 23.7,106.3 11,118.3 11,133 v 246 c 0,14.7 12.7,26.7 28.3,26.7 h 433.4 c 15.6,0 28.3,-11.9 28.3,-26.7 z M 35.5,379 V 133 c 0,-0.9 1.5,-2.2 3.8,-2.2 h 433.4 c 2.4,0 3.8,1.4 3.8,2.2 v 246 c 0,0.9 -1.5,2.2 -3.8,2.2 H 39.3 c -2.3,0 -3.8,-1.3 -3.8,-2.2 z" /><circle
       id="circle4"
       r="15.3"
       cy="191.10001"
       cx="99.300003" /><circle
       id="circle6"
       r="15.3"
       cy="191.10001"
       cx="162" /><circle
       id="circle8"
       r="15.3"
       cy="191.10001"
       cx="224.60001" /><circle
       id="circle10"
       r="15.3"
       cy="191.10001"
       cx="287.29999" /><circle
       id="circle12"
       r="15.3"
       cy="191.10001"
       cx="350" /><circle
       id="circle14"
       r="15.3"
       cy="191.10001"
       cx="412.70001" /><circle
       id="circle16"
       r="15.3"
       cy="256"
       cx="130.7" /><circle
       id="circle18"
       r="15.3"
       cy="256"
       cx="193.3" /><circle
       id="circle20"
       r="15.3"
       cy="256"
       cx="256" /><circle
       id="circle22"
       r="15.3"
       cy="256"
       cx="318.60001" /><path
       id="path24"
       d="m 381.3,240.7 v 0 c -8.5,0 -15.3,6.9 -15.3,15.3 0,8.5 6.9,15.3 15.3,15.3 v 0 c 8.5,0 15.3,-6.9 15.3,-15.3 0,-8.5 -6.8,-15.3 -15.3,-15.3 z" /><path
       id="path26"
       d="M 365.3,308.7 H 146.7 c -6.8,0 -12.3,5.5 -12.3,12.3 0,6.8 5.5,12.3 12.3,12.3 h 218.6 c 6.8,0 12.3,-5.5 12.3,-12.3 0,-6.8 -5.5,-12.3 -12.3,-12.3 z" /></g></svg>