<?xml version="1.0" encoding="UTF-8" standalone="no"?>
<svg
   xmlns:dc="http://purl.org/dc/elements/1.1/"
   xmlns:cc="http://creativecommons.org/ns#"
   xmlns:rdf="http://www.w3.org/1999/02/22-rdf-syntax-ns#"
   xmlns:svg="http://www.w3.org/2000/svg"
   xmlns="http://www.w3.org/2000/svg"
   height="100%"
   width="100%"
   xml:space="preserve"
   viewBox="0 0 100 100"
   y="0px"
   x="0px"
   id="Capa_1"
   version="1.1"><metadata
     id="metadata44"><rdf:RDF><cc:Work
         rdf:about=""><dc:format>image/svg+xml</dc:format><dc:type
           rdf:resource="http://purl.org/dc/dcmitype/StillImage" /><dc:title></dc:title></cc:Work></rdf:RDF></metadata><defs
     id="defs42" /><g
     transform="matrix(1.3667177,0,0,1.3667177,0,-0.10583924)"
     id="g7"><g
       id="Navigation"><g
         id="g4"><path
           id="path2"
           d="m 4.242,14.425 h 64.684 c 2.344,0 4.242,-1.933 4.242,-4.324 0,-2.385 -1.898,-4.325 -4.242,-4.325 H 4.242 C 1.898,5.776 0,7.716 0,10.101 c 0,2.392 1.898,4.324 4.242,4.324 z M 68.926,32.259 H 4.242 C 1.898,32.259 0,34.2 0,36.584 c 0,2.393 1.898,4.325 4.242,4.325 h 64.684 c 2.344,0 4.242,-1.933 4.242,-4.325 0,-2.384 -1.898,-4.325 -4.242,-4.325 z m 0,26.483 H 4.242 C 1.898,58.742 0,60.683 0,63.067 c 0,2.393 1.898,4.325 4.242,4.325 h 64.684 c 2.344,0 4.242,-1.935 4.242,-4.325 0,-2.384 -1.898,-4.325 -4.242,-4.325 z" /></g></g></g><g
     id="g9" /><g
     id="g11" /><g
     id="g13" /><g
     id="g15" /><g
     id="g17" /><g
     id="g19" /><g
     id="g21" /><g
     id="g23" /><g
     id="g25" /><g
     id="g27" /><g
     id="g29" /><g
     id="g31" /><g
     id="g33" /><g
     id="g35" /><g
     id="g37" /></svg>