<?xml version="1.0" encoding="UTF-8" standalone="no"?>
<svg
   xmlns:dc="http://purl.org/dc/elements/1.1/"
   xmlns:cc="http://creativecommons.org/ns#"
   xmlns:rdf="http://www.w3.org/1999/02/22-rdf-syntax-ns#"
   xmlns:svg="http://www.w3.org/2000/svg"
   xmlns="http://www.w3.org/2000/svg"
   height="100%"
   width="100%"
   xml:space="preserve"
   viewBox="0 0 100 100"
   y="0px"
   x="0px"
   id="Capa_1"
   version="1.1"><metadata
     id="metadata47"><rdf:RDF><cc:Work
         rdf:about=""><dc:format>image/svg+xml</dc:format><dc:type
           rdf:resource="http://purl.org/dc/dcmitype/StillImage" /><dc:title></dc:title></cc:Work></rdf:RDF></metadata><defs
     id="defs45" /><g
     transform="matrix(0.2805175,0,0,0.2805175,0,2.0281411)"
     id="g10"><g
       id="g8"><path fill="#8E1A17"
         id="path2"
         d="M 293.984,7.23 H 62.5 C 28.037,7.23 0,35.268 0,69.731 v 142.78 c 0,34.463 28.037,62.5 62.5,62.5 l 147.443,10e-4 70.581,70.58 c 2.392,2.393 5.588,3.662 8.842,3.662 1.61,0 3.234,-0.312 4.78,-0.953 4.671,-1.934 7.717,-6.49 7.717,-11.547 v -62.237 c 30.759,-3.885 54.621,-30.211 54.621,-62.006 V 69.731 c 0,-34.463 -28.037,-62.501 -62.5,-62.501 z m 37.5,205.282 c 0,20.678 -16.822,37.5 -37.5,37.5 h -4.621 c -6.903,0 -12.5,5.598 -12.5,12.5 v 44.064 L 223.96,253.673 c -2.344,-2.345 -5.522,-3.661 -8.839,-3.661 H 62.5 C 41.822,250.012 25,233.19 25,212.512 V 69.732 c 0,-20.678 16.822,-37.5 37.5,-37.5 h 231.484 c 20.678,0 37.5,16.822 37.5,37.5 z" /><path fill="#8E1A17"
         id="path4"
         d="m 270.242,95.743 h -184 c -6.903,0 -12.5,5.596 -12.5,12.5 0,6.903 5.597,12.5 12.5,12.5 h 184 c 6.903,0 12.5,-5.597 12.5,-12.5 0,-6.904 -5.596,-12.5 -12.5,-12.5 z" /><path fill="#8E1A17"
         id="path6"
         d="m 270.242,165.743 h -184 c -6.903,0 -12.5,5.596 -12.5,12.5 0,6.904 5.597,12.5 12.5,12.5 h 184 c 6.903,0 12.5,-5.597 12.5,-12.5 0,-6.903 -5.596,-12.5 -12.5,-12.5 z" /></g></g><g
     id="g12" /><g
     id="g14" /><g
     id="g16" /><g
     id="g18" /><g
     id="g20" /><g
     id="g22" /><g
     id="g24" /><g
     id="g26" /><g
     id="g28" /><g
     id="g30" /><g
     id="g32" /><g
     id="g34" /><g
     id="g36" /><g
     id="g38" /><g
     id="g40" /></svg>