<svg height="512pt" viewBox="-57 0 512 512" width="512pt" xmlns="http://www.w3.org/2000/svg"><path fill="#52935A" d="m367.332031 429v-284h-283.996093v-145h-68.335938v30h38.335938v332.023438c-30.90625 9.953124-53.335938 38.972656-53.335938 73.144531 0 42.363281 34.46875 76.832031 76.835938 76.832031 34.046874 0 62.972656-22.269531 73.027343-53h247.136719v-30zm-132.664062-254v108.667969h-48.667969v-108.667969zm-111 260.167969c0 25.824219-21.011719 46.832031-46.832031 46.832031-25.824219 0-46.835938-21.007812-46.835938-46.832031s21.011719-46.832031 46.835938-46.832031c25.820312 0 46.832031 21.007812 46.832031 46.832031zm29.730469-6.167969c-2.984376-37.34375-32.765626-67.230469-70.0625-70.371094v-183.628906h72.664062v138.667969h108.667969v-138.667969h72.664062v183.332031h-48.332031v30h48.332031v40.667969zm0 0"/><path fill="#52935A" d="m228.335938 358.332031h30.664062v30h-30.664062zm0 0"/></svg>