<?xml version="1.0" encoding="UTF-8" standalone="no"?>
<svg
   xmlns:dc="http://purl.org/dc/elements/1.1/"
   xmlns:cc="http://creativecommons.org/ns#"
   xmlns:rdf="http://www.w3.org/1999/02/22-rdf-syntax-ns#"
   xmlns:svg="http://www.w3.org/2000/svg"
   xmlns="http://www.w3.org/2000/svg"
   height="100%"
   width="100%"
   xml:space="preserve"
   viewBox="0 0 100 100"
   y="0px"
   x="0px"
   id="Layer_1"
   version="1.1"><metadata
     id="metadata43"><rdf:RDF><cc:Work
         rdf:about=""><dc:format>image/svg+xml</dc:format><dc:type
           rdf:resource="http://purl.org/dc/dcmitype/StillImage" /><dc:title></dc:title></cc:Work></rdf:RDF></metadata><defs
     id="defs41" /><g
     transform="matrix(0.1953125,0,0,0.1953125,0,0.15273438)"
     id="g6"><g
       id="g4"><path
         id="path2"
         d="M 512,241.7 273.643,3.343 v 156.152 c -71.41,3.744 -138.015,33.337 -188.958,84.28 C 30.075,298.384 0,370.991 0,448.222 v 60.436 l 29.069,-52.985 c 45.354,-82.671 132.173,-134.027 226.573,-134.027 5.986,0 12.004,0.212 18.001,0.632 v 157.779 z m -256.358,48.966 c -84.543,0 -163.661,36.792 -217.939,98.885 C 64.337,275.374 166.959,190.068 289.132,190.068 h 15.489 V 78.131 L 468.189,241.699 304.621,405.267 V 294.531 l -13.585,-1.683 c -11.689,-1.447 -23.597,-2.182 -35.394,-2.182 z" /></g></g><g
     id="g8" /><g
     id="g10" /><g
     id="g12" /><g
     id="g14" /><g
     id="g16" /><g
     id="g18" /><g
     id="g20" /><g
     id="g22" /><g
     id="g24" /><g
     id="g26" /><g
     id="g28" /><g
     id="g30" /><g
     id="g32" /><g
     id="g34" /><g
     id="g36" /></svg>