<?xml version="1.0" encoding="UTF-8" standalone="no"?>
<svg
   xmlns:dc="http://purl.org/dc/elements/1.1/"
   xmlns:cc="http://creativecommons.org/ns#"
   xmlns:rdf="http://www.w3.org/1999/02/22-rdf-syntax-ns#"
   xmlns:svg="http://www.w3.org/2000/svg"
   xmlns="http://www.w3.org/2000/svg"
   height="100%"
   width="100%"
   id="svg4"
   enable-background="new 0 0 44 44"
   viewBox="0 0 100 100"
   version="1.1">
  <metadata
     id="metadata10">
    <rdf:RDF>
      <cc:Work
         rdf:about="">
        <dc:format>image/svg+xml</dc:format>
        <dc:type
           rdf:resource="http://purl.org/dc/dcmitype/StillImage" />
        <dc:title></dc:title>
      </cc:Work>
    </rdf:RDF>
  </metadata>
  <defs
     id="defs8" />
  <path
     style="fill:#d80027;stroke-width:2.27272725"
     id="path2"
     d="M 50,0 C 22.272727,0 0,22.272727 0,50 0,77.727273 22.272727,100 50,100 77.727273,100 100,77.727273 100,50 100,22.272727 77.727273,0 50,0 Z m 7.272727,50.909091 17.045455,17.045454 C 74.772727,68.409091 75,69.090909 75,69.545455 75,70 74.772727,70.681818 74.318182,71.136364 l -3.181818,3.181818 C 70.681818,74.772727 70,75 69.545455,75 68.863636,75 68.409091,74.772727 67.954545,74.318182 L 50.909091,57.272727 c -0.454546,-0.454545 -1.136364,-0.454545 -1.590909,0 L 32.272727,74.318182 C 31.818182,74.772727 31.136364,75 30.681818,75 30,75 29.545455,74.772727 29.090909,74.318182 L 25.909091,71.136364 C 25.454545,70.681818 25.227273,70 25.227273,69.545455 c 0,-0.454546 0.227272,-1.136364 0.681818,-1.59091 L 42.954545,50.909091 c 0.454546,-0.454545 0.454546,-1.136364 0,-1.590909 L 25.909091,32.272727 c -0.454546,-0.454545 -0.681818,-1.136363 -0.681818,-1.590909 0,-0.454545 0.227272,-1.136363 0.681818,-1.590909 l 3.181818,-3.181818 c 0.454546,-0.454546 1.136364,-0.681818 1.590909,-0.681818 0.454546,0 1.136364,0.227272 1.590909,0.681818 l 17.045455,17.045454 c 0.454545,0.454546 1.136363,0.454546 1.590909,0 L 67.954545,25.909091 c 0.454546,-0.454546 1.136364,-0.681818 1.59091,-0.681818 0.681818,0 1.136363,0.227272 1.590909,0.681818 l 3.181818,3.181818 C 74.772727,29.545455 75,30.227273 75,30.681818 c 0,0.454546 -0.227273,1.136364 -0.681818,1.590909 L 57.272727,49.318182 c -0.454545,0.227272 -0.454545,1.136364 0,1.590909 z" />
</svg>
