<?xml version="1.0" encoding="UTF-8" standalone="no"?>
<svg
   xmlns:dc="http://purl.org/dc/elements/1.1/"
   xmlns:cc="http://creativecommons.org/ns#"
   xmlns:rdf="http://www.w3.org/1999/02/22-rdf-syntax-ns#"
   xmlns:svg="http://www.w3.org/2000/svg"
   xmlns="http://www.w3.org/2000/svg"
   height="100%"
   width="100%"
   xml:space="preserve"
   viewBox="0 0 100 100"
   y="0px"
   x="0px"
   id="Capa_1"
   version="1.1"><metadata
     id="metadata49"><rdf:RDF><cc:Work
         rdf:about=""><dc:format>image/svg+xml</dc:format><dc:type
           rdf:resource="http://purl.org/dc/dcmitype/StillImage" /><dc:title></dc:title></cc:Work></rdf:RDF></metadata><defs
     id="defs47" /><g
     transform="matrix(0.20525452,0,0,0.20525452,-0.09187195,-2.144e-6)"
     id="g12"><g
       id="g10"><g
         transform="translate(0,126.672)"
         id="g858"><path fill="#C16010"
           d="m 46.694,222.8 h 142.1 c 22.2,0 40.3,-18.1 40.3,-40.3 V 40.3 c 0,-22.2 -18.1,-40.3 -40.3,-40.3 h -142.1 c -22.2,0 -40.3,18.1 -40.3,40.3 v 142.1 c -0.1,22.3 18,40.4 40.3,40.4 z M 30.794,40.3 c 0,-8.7 7.1,-15.8 15.8,-15.8 h 142.1 c 8.7,0 15.8,7.1 15.8,15.8 v 142.1 c 0,8.7 -7.1,15.8 -15.8,15.8 h -142 c -8.7,0 -15.8,-7.1 -15.8,-15.8 V 40.3 Z"
           id="path2" /><path fill="#C16010"
           d="m 477.294,102.7 -79.1,-79.1 c -4.8,-4.8 -12.5,-4.8 -17.3,0 -4.8,4.8 -4.8,12.5 0,17.3 l 58.2,58.2 h -170.8 c -6.8,0 -12.3,5.5 -12.3,12.3 0,6.8 5.5,12.3 12.3,12.3 h 170.8 l -58.2,58.2 c -4.8,4.8 -4.8,12.5 0,17.3 2.4,2.4 5.5,3.6 8.7,3.6 3.2,0 6.3,-1.2 8.7,-3.6 l 79.1,-79.1 c 4.7,-4.9 4.7,-12.6 -0.1,-17.4 z"
           id="path4" /></g></g></g><g
     id="g14" /><g
     id="g16" /><g
     id="g18" /><g
     id="g20" /><g
     id="g22" /><g
     id="g24" /><g
     id="g26" /><g
     id="g28" /><g
     id="g30" /><g
     id="g32" /><g
     id="g34" /><g
     id="g36" /><g
     id="g38" /><g
     id="g40" /><g
     id="g42" /></svg>