<?xml version="1.0" encoding="UTF-8" standalone="no"?>
<svg
   xmlns:dc="http://purl.org/dc/elements/1.1/"
   xmlns:cc="http://creativecommons.org/ns#"
   xmlns:rdf="http://www.w3.org/1999/02/22-rdf-syntax-ns#"
   xmlns:svg="http://www.w3.org/2000/svg"
   xmlns="http://www.w3.org/2000/svg"
   height="100%"
   width="100%"
   xml:space="preserve"
   viewBox="0 0 100 100"
   y="0px"
   x="0px"
   id="Capa_1"
   version="1.1"><metadata
     id="metadata41"><rdf:RDF><cc:Work
         rdf:about=""><dc:format>image/svg+xml</dc:format><dc:type
           rdf:resource="http://purl.org/dc/dcmitype/StillImage" /><dc:title></dc:title></cc:Work></rdf:RDF></metadata><defs
     id="defs39" /><g
     transform="scale(0.28322755)"
     id="g4"><path
       id="path2"
       d="M 340.969,0 H 12.105 C 5.423,0 0,5.423 0,12.105 v 328.863 c 0,6.68 5.423,12.105 12.105,12.105 h 328.864 c 6.679,0 12.104,-5.426 12.104,-12.105 V 12.105 C 353.073,5.423 347.647,0 340.969,0 Z M 67.589,18.164 H 285.484 V 120.048 H 67.589 Z M 296.082,327.35 H 57.003 V 176.537 H 296.082 Z M 223.953,33.295 h 30.269 v 72.638 h -30.269 z m 50.182,180.568 H 78.938 v -12.105 h 195.197 z m 0,42.368 H 78.938 v -12.105 h 195.197 z m 0,40.856 H 78.938 v -12.105 h 195.197 z" /></g><g
     id="g6" /><g
     id="g8" /><g
     id="g10" /><g
     id="g12" /><g
     id="g14" /><g
     id="g16" /><g
     id="g18" /><g
     id="g20" /><g
     id="g22" /><g
     id="g24" /><g
     id="g26" /><g
     id="g28" /><g
     id="g30" /><g
     id="g32" /><g
     id="g34" /></svg>