<?xml version="1.0" encoding="UTF-8" standalone="no"?>
<svg
   xmlns:dc="http://purl.org/dc/elements/1.1/"
   xmlns:cc="http://creativecommons.org/ns#"
   xmlns:rdf="http://www.w3.org/1999/02/22-rdf-syntax-ns#"
   xmlns:svg="http://www.w3.org/2000/svg"
   xmlns="http://www.w3.org/2000/svg"
   height="100%"
   width="100%"
   xml:space="preserve"
   viewBox="0 0 100 100"
   y="0px"
   x="0px"
   id="Layer_1"
   version="1.1"><metadata
     id="metadata67"><rdf:RDF><cc:Work
         rdf:about=""><dc:format>image/svg+xml</dc:format><dc:type
           rdf:resource="http://purl.org/dc/dcmitype/StillImage" /><dc:title></dc:title></cc:Work></rdf:RDF></metadata><defs
     id="defs65" /><g
     transform="matrix(0.1953125,0,0,0.1953125,0,-0.00273438)"
     id="g892"><g
       id="g6"><g
         id="g4"><path
           d="m 470.573,369.837 c -1.951,-5.285 -7.815,-7.988 -13.1,-6.038 l -106.072,39.139 c -5.285,1.95 -7.988,7.815 -6.038,13.1 1.521,4.12 5.42,6.671 9.57,6.671 1.172,0 2.365,-0.204 3.53,-0.633 l 106.072,-39.139 c 5.285,-1.95 7.988,-7.815 6.038,-13.1 z"
           id="path2" /></g></g><g
       id="g12"><g
         id="g10"><path
           d="m 335.337,419.738 c -1.949,-5.286 -7.815,-7.989 -13.1,-6.039 l -4.492,1.657 c -5.284,1.95 -7.988,7.815 -6.038,13.099 1.52,4.12 5.42,6.672 9.57,6.672 1.172,0 2.365,-0.204 3.53,-0.633 l 4.492,-1.657 c 5.284,-1.95 7.988,-7.814 6.038,-13.099 z"
           id="path8" /></g></g><g
       id="g18"><g
         id="g16"><path
           d="m 470.573,328.276 c -1.951,-5.285 -7.815,-7.986 -13.1,-6.038 l -83.825,30.93 c -5.285,1.95 -7.988,7.815 -6.038,13.1 1.521,4.12 5.42,6.671 9.57,6.671 1.172,0 2.365,-0.204 3.53,-0.633 l 83.825,-30.93 c 5.285,-1.95 7.988,-7.815 6.038,-13.1 z"
           id="path14" /></g></g><g
       id="g24"><g
         id="g22"><path
           d="m 470.573,287.147 c -1.951,-5.285 -7.815,-7.986 -13.1,-6.038 l -83.825,30.93 c -5.285,1.95 -7.988,7.815 -6.038,13.1 1.521,4.12 5.42,6.671 9.57,6.671 1.172,0 2.365,-0.204 3.53,-0.633 l 83.825,-30.93 c 5.285,-1.95 7.988,-7.815 6.038,-13.1 z"
           id="path20" /></g></g><g
       id="g30"><g
         id="g28"><path
           d="M 505.332,100.528 259.531,9.832 c -2.279,-0.84 -4.783,-0.84 -7.061,0 L 6.669,100.528 6.667,100.536 c -0.805,0.298 -1.579,0.692 -2.299,1.193 C 1.631,103.637 0,106.762 0,110.097 v 291.806 c 0,4.271 2.661,8.09 6.668,9.569 l 245.801,90.696 c 1.146,0.423 2.341,0.63 3.53,0.63 1.201,0 2.396,-0.218 3.528,-0.636 l 0.004,0.006 245.801,-90.696 c 4.007,-1.479 6.668,-5.297 6.668,-9.569 V 110.097 c 0,-4.272 -2.661,-8.09 -6.668,-9.569 z M 245.801,477.965 20.398,394.795 V 124.732 l 45.896,16.936 v 123.578 c 0,4.271 2.661,8.09 6.668,9.569 l 110.151,40.645 c 1.146,0.423 2.341,0.63 3.53,0.63 2.058,0 4.098,-0.623 5.833,-1.832 2.736,-1.907 4.367,-5.032 4.367,-8.367 V 189.838 l 48.956,18.064 V 477.965 Z M 176.446,182.311 V 291.254 L 86.693,258.136 V 149.193 Z m -70.489,-47.834 80.688,-29.773 80.688,29.773 -80.688,29.773 z M 256,189.922 l -40.001,-14.76 84.329,-31.117 c 4.007,-1.479 6.668,-5.297 6.668,-9.569 0,-4.272 -2.661,-8.09 -6.668,-9.569 L 190.176,84.263 c -2.279,-0.84 -4.782,-0.84 -7.062,0 L 76.383,123.647 39.663,110.097 256,30.273 472.337,110.098 Z M 491.602,394.795 266.2,477.964 V 207.902 l 225.402,-83.17 z"
           id="path26" /></g></g></g><g
     id="g32" /><g
     id="g34" /><g
     id="g36" /><g
     id="g38" /><g
     id="g40" /><g
     id="g42" /><g
     id="g44" /><g
     id="g46" /><g
     id="g48" /><g
     id="g50" /><g
     id="g52" /><g
     id="g54" /><g
     id="g56" /><g
     id="g58" /><g
     id="g60" /></svg>