<?xml version="1.0" encoding="UTF-8" standalone="no"?>
<svg
   xmlns:dc="http://purl.org/dc/elements/1.1/"
   xmlns:cc="http://creativecommons.org/ns#"
   xmlns:rdf="http://www.w3.org/1999/02/22-rdf-syntax-ns#"
   xmlns:svg="http://www.w3.org/2000/svg"
   xmlns="http://www.w3.org/2000/svg"
   height="100%"
   width="100%"
   xml:space="preserve"
   viewBox="0 0 100 100"
   y="0px"
   x="0px"
   id="Capa_1"
   version="1.1"><metadata
     id="metadata49"><rdf:RDF><cc:Work
         rdf:about=""><dc:format>image/svg+xml</dc:format><dc:type
           rdf:resource="http://purl.org/dc/dcmitype/StillImage" /><dc:title></dc:title></cc:Work></rdf:RDF></metadata><defs
     id="defs47" /><g
     transform="matrix(0.20725389,0,0,0.20725389,0.02331601,-1.925e-6)"
     id="g12"><g
       id="g10"><path fill="#D7B87C"
         id="path2" 
         d="m 399.25,98.9 h -12.4 V 71.3 C 386.85,32 354.85,0 315.55,0 h -149.7 c -39.3,0 -71.3,32 -71.3,71.3 v 27.6 h -11.3 c -39.3,0 -71.3,32 -71.3,71.3 v 115 c 0,39.3 32,71.3 71.3,71.3 h 11.2 v 90.4 c 0,19.6 16,35.6 35.6,35.6 h 221.1 c 19.6,0 35.6,-16 35.6,-35.6 v -90.4 h 12.5 c 39.3,0 71.3,-32 71.3,-71.3 v -115 c 0,-39.3 -32,-71.3 -71.3,-71.3 z M 121.45,71.3 c 0,-24.4 19.9,-44.3 44.3,-44.3 h 149.6 c 24.4,0 44.3,19.9 44.3,44.3 v 27.6 h -238.2 z m 238.3,375.8 c 0,4.7 -3.9,8.6 -8.6,8.6 h -221.1 c -4.7,0 -8.6,-3.9 -8.6,-8.6 V 298 h 238.3 z m 83.8,-161.8 c 0,24.4 -19.9,44.3 -44.3,44.3 h -12.4 V 298 h 17.8 c 7.5,0 13.5,-6 13.5,-13.5 0,-7.5 -6,-13.5 -13.5,-13.5 h -330 c -7.5,0 -13.5,6 -13.5,13.5 0,7.5 6,13.5 13.5,13.5 h 19.9 v 31.6 h -11.3 c -24.4,0 -44.3,-19.9 -44.3,-44.3 v -115 c 0,-24.4 19.9,-44.3 44.3,-44.3 h 316 c 24.4,0 44.3,19.9 44.3,44.3 z" /><path fill="#D7B87C"
         id="path4"
         d="m 154.15,364.4 h 171.9 c 7.5,0 13.5,-6 13.5,-13.5 0,-7.5 -6,-13.5 -13.5,-13.5 h -171.9 c -7.5,0 -13.5,6 -13.5,13.5 0,7.5 6.1,13.5 13.5,13.5 z" /><path fill="#D7B87C"
         id="path6"
         d="m 327.15,392.6 h -172 c -7.5,0 -13.5,6 -13.5,13.5 0,7.5 6,13.5 13.5,13.5 h 171.9 c 7.5,0 13.5,-6 13.5,-13.5 0,-7.5 -6,-13.5 -13.4,-13.5 z" /><path fill="#D7B87C"
         id="path8"
         d="m 398.95,151.9 h -27.4 c -7.5,0 -13.5,6 -13.5,13.5 0,7.5 6,13.5 13.5,13.5 h 27.4 c 7.5,0 13.5,-6 13.5,-13.5 0,-7.5 -6,-13.5 -13.5,-13.5 z" /></g></g><g
     id="g14" /><g
     id="g16" /><g
     id="g18" /><g
     id="g20" /><g
     id="g22" /><g
     id="g24" /><g
     id="g26" /><g
     id="g28" /><g
     id="g30" /><g
     id="g32" /><g
     id="g34" /><g
     id="g36" /><g
     id="g38" /><g
     id="g40" /><g
     id="g42" /></svg>