<?xml version="1.0" encoding="UTF-8" standalone="no"?>
<svg
   xmlns:dc="http://purl.org/dc/elements/1.1/"
   xmlns:cc="http://creativecommons.org/ns#"
   xmlns:rdf="http://www.w3.org/1999/02/22-rdf-syntax-ns#"
   xmlns:svg="http://www.w3.org/2000/svg"
   xmlns="http://www.w3.org/2000/svg"
   height="100%"
   width="100%"
   xml:space="preserve"
   viewBox="0 0 100 100"
   y="0px"
   x="0px"
   id="Capa_1"
   version="1.1"><metadata
     id="metadata61"><rdf:RDF><cc:Work
         rdf:about=""><dc:format>image/svg+xml</dc:format><dc:type
           rdf:resource="http://purl.org/dc/dcmitype/StillImage" /><dc:title></dc:title></cc:Work></rdf:RDF></metadata><defs
     id="defs59" /><g
     transform="scale(0.1953125)"
     id="g883"><g
       id="g6"><g
         id="g4"><path
           d="M 176.792,0 H 59.208 C 26.561,0 0,26.561 0,59.208 V 176.792 C 0,209.439 26.561,236 59.208,236 H 176.792 C 209.439,236 236,209.439 236,176.792 V 59.208 C 236,26.561 209.439,0 176.792,0 Z M 196,176.792 C 196,187.383 187.383,196 176.792,196 H 59.208 C 48.617,196 40,187.383 40,176.792 V 59.208 C 40,48.617 48.617,40 59.208,40 H 176.792 C 187.383,40 196,48.617 196,59.208 Z"
           id="path2" /></g></g><g
       id="g12"><g
         id="g10"><path
           d="M 452,0 H 336 c -33.084,0 -60,26.916 -60,60 v 116 c 0,33.084 26.916,60 60,60 h 116 c 33.084,0 60,-26.916 60,-60 V 60 C 512,26.916 485.084,0 452,0 Z m 20,176 c 0,11.028 -8.972,20 -20,20 H 336 c -11.028,0 -20,-8.972 -20,-20 V 60 c 0,-11.028 8.972,-20 20,-20 h 116 c 11.028,0 20,8.972 20,20 z"
           id="path8" /></g></g><g
       id="g18"><g
         id="g16"><path
           d="M 176.792,276 H 59.208 C 26.561,276 0,302.561 0,335.208 V 452.792 C 0,485.439 26.561,512 59.208,512 H 176.792 C 209.439,512 236,485.439 236,452.792 V 335.208 C 236,302.561 209.439,276 176.792,276 Z M 196,452.792 C 196,463.383 187.383,472 176.792,472 H 59.208 C 48.617,472 40,463.383 40,452.792 V 335.208 C 40,324.617 48.617,316 59.208,316 h 117.584 c 10.591,0 19.208,8.617 19.208,19.208 z"
           id="path14" /></g></g><g
       id="g24"><g
         id="g22"><path
           d="M 452,276 H 336 c -33.084,0 -60,26.916 -60,60 v 116 c 0,33.084 26.916,60 60,60 h 116 c 33.084,0 60,-26.916 60,-60 V 336 c 0,-33.084 -26.916,-60 -60,-60 z m 20,176 c 0,11.028 -8.972,20 -20,20 H 336 c -11.028,0 -20,-8.972 -20,-20 V 336 c 0,-11.028 8.972,-20 20,-20 h 116 c 11.028,0 20,8.972 20,20 z"
           id="path20" /></g></g></g><g
     id="g26" /><g
     id="g28" /><g
     id="g30" /><g
     id="g32" /><g
     id="g34" /><g
     id="g36" /><g
     id="g38" /><g
     id="g40" /><g
     id="g42" /><g
     id="g44" /><g
     id="g46" /><g
     id="g48" /><g
     id="g50" /><g
     id="g52" /><g
     id="g54" /></svg>