<?xml version="1.0" encoding="UTF-8" standalone="no"?>
<svg
   xmlns:dc="http://purl.org/dc/elements/1.1/"
   xmlns:cc="http://creativecommons.org/ns#"
   xmlns:rdf="http://www.w3.org/1999/02/22-rdf-syntax-ns#"
   xmlns:svg="http://www.w3.org/2000/svg"
   xmlns="http://www.w3.org/2000/svg"
   height="100%"
   width="100%"
   id="svg4"
   enable-background="new 0 0 44 44"
   viewBox="0 0 100 100"
   version="1.1">
  <metadata
     id="metadata10">
    <rdf:RDF>
      <cc:Work
         rdf:about="">
        <dc:format>image/svg+xml</dc:format>
        <dc:type
           rdf:resource="http://purl.org/dc/dcmitype/StillImage" />
        <dc:title></dc:title>
      </cc:Work>
    </rdf:RDF>
  </metadata>
  <defs
     id="defs8" />
  <path
     style="fill:#459909;stroke-width:2.27272725"
     id="path2"
     d="M 50,0 C 22.272727,0 0,22.272727 0,50 0,77.727273 22.272727,100 50,100 77.727273,100 100,77.727273 100,50 100,22.272727 77.727273,0 50,0 Z m 28.863636,34.318182 v 0 L 42.5,72.045455 c -0.454545,0.454545 -0.909091,0.681818 -1.590909,0.681818 -0.681818,0 -1.363636,-0.227273 -1.590909,-0.681818 L 21.590909,52.954546 21.136364,52.5 c -0.454546,-0.454546 -0.681819,-1.136364 -0.681819,-1.590909 0,-0.454545 0.227273,-1.136364 0.681819,-1.590909 l 3.181818,-3.181818 c 0.909091,-0.909091 2.272727,-0.909091 3.181818,0 l 0.227273,0.227272 12.5,13.409091 c 0.454545,0.454546 1.136363,0.454546 1.590909,0 L 72.272727,28.181818 H 72.5 c 0.909091,-0.909091 2.272727,-0.909091 3.181818,0 l 3.181818,3.181818 c 0.909091,0.681819 0.909091,2.045455 0,2.954546 z" />
</svg>
